<svg id="图层_1" data-name="图层 1" xmlns="http://www.w3.org/2000/svg" viewBox="0 0 1366 768"><title>1</title><path class="body_1" d="M102.17,52.8l6.66,11.79,3.81-.88,5-.74,4.29.25,4.29.86,2.94,1.47,3.19,1.84L135.93,70,139.23,73l2.7,3.06,2,3.43,1.1,3.8v2.94l3.8,4.66.61,15.56,1.47,6.25,3.92,5.51,1.23,3.92,1.1,6.25v6.86l-.61,6.13-1.72,6-2.08,7.11-2.82,7-2.08,7.72-.86,6.25-1.23,6.74-1.35,5.15-.86,5,1.59,8.15,1.84,9.19,2.45,11.64,1.23,10.54,1.59,9.31,1.84,15,1.47,24,1.59,8.8v51.89l4,9.5,4,8,3,4v4h-18.5l-3.5-4-3.5-6-5-3.5-5.5-1,3-15.5,3-15.5-3-16-6.5-3-7,3.5-6-4-1.5,6.5-25.5,12-5.5.5-4.5-5-7.5-8-8-3v51l-12.5-1-5,4.5-13.5,1.5-8.5.5-4-2v-4l3-5,6-3,8.5-5,7-6,.5-19,.5-4-2.5-2-1-8.5h-3l-2.5,3.5-6.5-10.5v25l-10-18.5v-18l5-16.5,15.5-41,7.5-16.76,4-12.08,2.52-7.66,2-7.5,4.5-10,2-9,2.5-23.5-5.5-12-3-10.5,1.5-12.5-.5-8.5,4.5-10.5,7.5-7,10-7.75,4.59-1.39-.08-3.29-3.71-5.23-3.22-5a18.82,18.82,0,0,1-2.28-4.39c-.56-1.54-.68-4.35-1.5-6.12s-4.16-3.27-5.27-5.1A15.14,15.14,0,0,1,66.61,36s4.39,2.78,3.44-2.39c-.48-2.64,3.67-5.83,4.61-6.78a35.89,35.89,0,0,1,4.89-3.06s3.56-1.5,5.11-1.94a13.1,13.1,0,0,1,5.5,0c1.39.33,3.74,2.17,5.11,3.28a20.62,20.62,0,0,1,4.33,6.61c.84,2.15,1.78,10.39,1.78,10.39Z" fill="none" stroke="#fff" stroke-miterlimit="10"/>
				<polygon class="body_2" points="73.91 76.94 99.15 74.66 106.64 85.41 74.72 108.69 60.39 93.87 65.55 82.67 73.91 76.94" fill="none" stroke="#fff" stroke-miterlimit="10"/>
				<path class="body_3" d="M99.68,76.75s0,2.29-.52,2.67a6.06,6.06,0,0,1-2.48.2l-7.57.17a68.35,68.35,0,0,0-7-.08c-3,.12-8.22,2.16-8.22,2.16s7.13.12,8.41.23,5.73.19,7.07.4a42.86,42.86,0,0,1,5.74,1.62c.86.36,3.82,1.92,4.07,2.81s-.24,1.66-.73,2.57S80,103.71,80,103.71l-5,.62s-2-.22-2.87-.4a7.06,7.06,0,0,1-3.45-1.53c-.92-.95-3.09-3.93-3-4.69a4.22,4.22,0,0,1,2.12-2.5,3.89,3.89,0,0,1,2.25.25A23.09,23.09,0,0,1,72.6,98a3.47,3.47,0,0,0,1.75,1,6.39,6.39,0,0,0,2.25-.37,30.54,30.54,0,0,0,3-1.75s1.56-.91,1.75-1.5a2.43,2.43,0,0,0-.37-2,8.56,8.56,0,0,0-3.25-1.67,43.14,43.14,0,0,0-6.12-.57,25.47,25.47,0,0,0-5,.57c-1.05.31-2.5,1.54-3.12,1.55a2.22,2.22,0,0,1-1.25-.37c-.38-.18-.83-1.17-.83-1.17l4.14-9s7.14-5.33,8.36-5.73,25.24-2.28,25.24-2.28Z" fill="none" stroke="#fff" stroke-miterlimit="10"/></svg>