<svg id="图层_1" data-name="图层 1" xmlns="http://www.w3.org/2000/svg" viewBox="0 0 187.84 387.84"><title>画板 2</title><path d="M107.61,22.6v8h8l7.26,2.91L126.74,28V47.3L125.29,50v3.39l-4.12,12.11-4,2.42v4.84H119l5.09,3.63h7.75l12.59,20.58v29.54l8.23,17.44,2.42-2.66,1.94-6.54v9.2l-2.18,2.66-1.63,6.06,3.38-1.29,3.17-3.89-1.58,7.92-4.84,3.54-1.4,4.36,4.66-2,3.7-3.8-1,5.91-6.14,5.32,3.82,8.85v12.35l-9,4.84,3.15,83.55,1,23.73.24,14.53L151,326l-1.45,2.42-.24,4.84,7.75,5.81,2.66,1.94,3.39,1.45,1.94,1.7v3.87H146.84l-5.09-1.7-8.23-1.94-6.54-.73-5.33.24-.48-7L118.51,327,105.19,339.6,89.45,341l-12.83-.73-40.2.48L20.67,339.6,34,321.68l9.93-23,19.9-113.33s10.65-31.42,11.58-43.28a59.57,59.57,0,0,0-1.74-20.42l-1-3.61a94.16,94.16,0,0,1-2.74,12.36c-1.51,4.38-6.44,11-6.44,11l1.7,19.42-.68,10.81,1.92,5.09L63,190.13l-15.57-1.9L43.55,179l1.77-9.43-.45-10.88-1.94-7.51,1.47-3.9,1.45-22.52,16-40.68L66.2,78.3,71,73.21,81.46,69.1l3.39-.48,8-3.63,4.6-11.38,1.21-10.41Z" fill="none" stroke="#fff" stroke-miterlimit="10"/><polygon points="39.78 144.13 34.95 138.61 36.82 145.93 42.94 151.22 44.44 146.73 39.78 144.13" fill="none" stroke="#fff" stroke-miterlimit="10"/><polygon points="44.88 158.73 41.26 157.12 37.75 154.28 39.79 160.26 45.11 164.27 44.88 158.73" fill="none" stroke="#fff" stroke-miterlimit="10"/><polygon points="45.31 169.17 41.43 167.27 37.12 163.44 39.85 170.17 44.58 173.57 45.31 169.17" fill="none" stroke="#fff" stroke-miterlimit="10"/><polygon points="74.84 340.34 78.26 348.07 88.31 357.28 82.44 361.15 68.05 357.53 58.6 351.6 49.77 345.61 49.77 340.32 74.84 340.34" fill="none" stroke="#fff" stroke-miterlimit="10"/><polygon points="117.91 88.37 112.56 87.17 107.6 84 102.83 87.17 94.1 95.91 103.63 95.91 109.78 95.91 114.14 99.28 116.13 102.45 117.91 100.07 120.69 99.28 123.07 102.45 125.65 104.64 128.43 99.48 130.22 99.28 132.6 101.66 133.79 101.46 134.78 97.69 138.35 97.1 139.54 98.09 141.13 98.29 139.94 94.32 131.41 85.19 130.81 87.97 123.47 88.17 121.29 82.02 120.3 85.79 118.51 82.02 117.91 88.37" fill="none" stroke="#fff" stroke-miterlimit="10"/></svg>