<svg id="图层_1" data-name="图层 1" xmlns="http://www.w3.org/2000/svg" viewBox="0 0 187.84 387.84"><title>画板 3</title><path d="M110.18,93.5v3.17l5.18,5.47,4,2.88h5.18l5.18,1.44,2,4,2.3,4.89,2.3,5.18,6,8.63,3.45,3.74,3.17,3.74,2.88,2.3v7.48l-5.18,6.33-9.5-1.15-7.48-5.18-4.6,6.33.58,17.55,3.45,13.81,3.45,14.31,1.15,8.13,1.44,5.18V229l-1.44,5.47.29,9.5.29,13.24.29,16.69-2,15v13.81l.86,8.34,1.44,8.34,4.32,6,6.33,5.18,11.51,6.62,3.74,1.44v4.89l-6.91,4h-7.48l-12.37-5.18-1.15,1.73-8.34,1.73-3.45-.29-2.3-23.88-1.38-11.3-4.28-26.65L117.08,267l-3.45-18.13-4.89-17-3.17-14.67v-8.06L102.41,208v4.6l-6.33,15-7.48,17.26-6.33,13.81-11.8,35.68L63,315.06l-1.15,22.73,1.86,12.33-7.43,10.59H47l-5.63-8.11-1.58-8.79,3.6-15.32,3.38-12.16,4.05-31.76,10.36-26.36,3.6-20.5,2.48-16.22L72,206.85l.9-5,7.88-27.48.9-20.95-5.18-11.94-2.48-15.77,0,7.31-.71,10.86-1.82,7.9-3.44,8.7S67,170.61,65.9,176.71s-2.83,8.3-2.23,14.37,5.44,11.05,5.44,11.05l-.78,8.78-2.23,2.43L57,216l-5.26-6.22L49.91,203l-.16-8.12a41.15,41.15,0,0,1-.9-16.22c1.26-9.26,2.07-20.8,2.07-20.8l1.62-14.17,3-17.06,2.7-15.32L65,103.68l9.24-3.38,7.66-2.7,7.88-5.18L95,81.83l-.23-6.53-3.6-11.71H92.3l3.83,6.31,2.48-5L102,61.78h7.43l3.6.9,2.48,2.48,2.25,2.48L118.88,71v5.41l.23,2.93-.68,2.25-2.7.9-1.13,3.83-1.13,1.58-1.58,5.63Z" fill="none" stroke="#fff" stroke-miterlimit="10"/><polygon points="78.84 181.28 86.38 174.32 94.27 181.28 96.89 177.8 109.32 187.23 119.12 175.52 121.51 179.34 126.44 173.97 125.66 168.81 121.27 174.32 118.88 171.22 108.84 181.97 97.13 173.37 93.79 175.52 87.34 168.81 80.39 175.89 78.84 181.28" fill="none" stroke="#fff" stroke-miterlimit="10"/><circle cx="111.62" cy="121.24" r="8.39" fill="none" stroke="#fff" stroke-miterlimit="10" stroke-width="2"/><polygon points="115.75 111.46 109.56 116.73 111.62 116.73 107.17 122.23 109.8 122.23 104.54 132.5 116.25 121.24 111.62 121.24 117.44 114.62 113.62 115.06 115.75 111.46" fill="none" stroke="#fff" stroke-miterlimit="10"/></svg>