<svg id="图层_1" data-name="图层 1" xmlns="http://www.w3.org/2000/svg" viewBox="0 0 176.54 318.52"><title>4</title><path d="M113.06,57V45.24l3.83-1.18s9.44,11.21,10.62,18.58c0,0,6.19,3.24,7.08,5a84.33,84.33,0,0,1,4.13,9.22c1.47,4,0,22.62,0,22.62l5.6-1.47,2.95,1.47,2.36,1.48v5l1.18,7.08,1.77,1.77v5.9l1.18,5.31v7.43l-3.83,1.41,3.83,1.18-1.47,3.71-2.95,2.48v3.82l4.42-2.64,3.24-2.36,1.77,1.77v3.23l-8,4.44-3.24,1.18v2.45l3.54-1.86,2.36-.88,1.47,2.74-1.47.66L149,158.3h-5l-12.68,31.43L126.92,198l2.06,9.14-1.77,3.24L129,229.53l2.95,15.92,1.18,8-.88,9.14-.29,7.67-.88,4.72,12.38,17.4-3.83,2.06H105.39L103,284.67V273.47l1.47-22.12v-7.08L101,232.78v-2.65l4.13-5.9.59-22.41-.29-15L101,175.28V163.36l-8.55,21.35-1.47,6.49L88,196.51l-3.54,6.78-2.95,13.56-1.18,10v15.63l-4.13,5.6-6.49,27.72v13l-6.78,4.13-6.49,3.24H44.94l-6.49-2.65v-5.6l2.65-4.72,2.36-4.42,1.47-15.33,1.77-14.15,1.77-8.85L50,234.25,57,222.16l.88-20.94,2.36-2.06,2.95,1.18-.78-20.13.19-16.85,7.08-17.29.3-8,.58-15.58.29-17.69-2.65-9.73-4.72,7.67,2.06,16.51-2.06.29,6.65,14.25-.46,12.28-7.08,17.29v22.09l-9.15-6.63L44.65,151.1l-1.18-17.63-5-6.25v-2.95l1.77-2.65,2.65,3.24,1.47-2.65-7.37-10v-3.83L39,106.86l5.6,6.78-1.18-5.9,3.24-1.47-2.95-4.72,4.72-4.13-4.13-2.06,1.18-7.19L52,70.3,65.88,50l7.37-9.73,2.65,2.36v10l1.47-1.77,1.77,5,4.42-4.42L83,44.65l-.88-4.42,2.65-8.55L90.35,29h4.72l5,2.95,3.24,5L103,42l-.59,7.08L101,52.61l3.54,3.83,4.13-1.18,2.64-2.16Z" fill="none" stroke="#fff" stroke-miterlimit="10"/><path d="M113.18,85.62a9.41,9.41,0,1,0,.07,5.39l-2.87-.91a6.39,6.39,0,1,1-.27-4.13,2,2,0,0,1,.12.34l1.45-.34" fill="#fff"/><circle cx="104.41" cy="88.44" r="1.94" transform="translate(-31.2 106.66) rotate(-47.92)" fill="#fff"/><polygon points="89.64 53.35 92.23 50.77 94.81 49.55 96.8 50.31 98.68 51.62 100.3 53.64 100.14 56.85 89.8 56.85 89.64 53.35" fill="#fff"/><polygon points="93.41 29.89 94.4 31.51 96.91 33.03 94.97 33.66 92.42 31.78 92.42 34.02 95.65 35.91 96.91 35.91 96.91 39.23 100.95 40.94 101.67 50.92 102.44 49.07 103.33 36.98 102.6 35.86 102.21 38.06 98.53 38.06 98.26 36.98 99.25 35.37 101.22 34.92 101.73 34.52 100.08 31.97 95.07 29.02 92.87 29.02 93.41 29.89" fill="#fff"/></svg>