<svg id="图层_1" data-name="图层 1" xmlns="http://www.w3.org/2000/svg" viewBox="0 0 187.84 387.84"><title>画板 5</title><polygon points="75.19 92.61 70.86 89.44 69.69 87.61 69.69 85.78 67.02 84.78 68.86 83.11 71.11 83.11 73.52 83.11 75.19 81.44 75.19 79.28 73.36 79.28 71.11 77.11 69.36 76.11 69.02 73.94 69.86 71.94 71.11 70.61 71.11 72.28 71.11 75.11 72.02 75.94 73.52 76.11 75.19 75.11 76.02 72.61 77.52 70.61 76.19 68.61 76.36 65.94 76.36 64.61 74.69 62.45 73.19 61.45 72.27 62.45 69.69 63.45 71.02 61.45 71.52 59.28 68.69 59.28 67.02 56.45 67.02 53.78 67.02 52.11 67.86 52.78 68.36 55.28 68.86 57.11 70.19 57.28 70.36 53.78 71.19 52.11 72.27 50.78 74.19 50.78 74.36 47.45 77.52 43.95 80.52 41.61 83.36 39.11 87.02 38.11 89.86 36.95 92.52 36.95 94.02 35.45 97.69 36.95 99.52 38.11 102.52 38.28 105.86 37.95 107.19 40.95 108.19 43.78 109.36 46.45 111.36 45.11 112.19 43.28 113.36 44.11 113.36 45.95 113.36 48.11 111.69 50.28 113.36 52.11 114.86 52.95 114.86 56.11 116.36 58.95 117.52 60.61 119.19 60.45 120.02 62.95 118.36 65.44 117.86 67.44 117.86 70.11 118.19 71.61 120.86 71.78 121.52 70.44 121.52 73.28 118.69 74.11 118.19 75.11 120.19 76.61 117.86 77.28 118.36 79.11 121.52 79.78 119.52 81.94 122.52 83.61 122.52 85.94 125.86 87.11 129.19 91.11 131.02 95.11 132.19 98.78 134.19 106.28 141.35 125.78 146.02 136.11 148.19 140.44 147.35 144.61 142.19 149.11 136.52 152.61 120.02 161.44 118.36 163.78 117.69 168.11 114.52 168.94 115.69 173.94 117.69 179.11 119.86 186.28 120.69 191.44 122.36 200.94 131.85 251.11 134.99 291.14 137.99 312.45 139.99 322.13 142.73 330.17 145.47 335.1 148.19 338.11 151.35 341.44 151.35 343.94 145.52 345.44 133.52 344.28 125.15 334.55 124.02 330.34 119.62 330.25 118.63 320.85 119.58 312.64 120.45 301.86 118.99 283.59 111.75 254.93 107.85 243.91 102.91 232.95 98.86 222.59 93.52 205.44 92.22 200.5 89.86 193.44 89.02 191.78 87.69 196.11 87.36 202.11 86.36 208.94 84.69 218.78 83.69 235.78 83.19 244.78 82.6 259.3 80.49 290.17 78.73 301.79 73.41 329.05 73.12 337.39 73.12 345.44 71.97 346.88 64.58 346.84 60.57 347.35 43.14 347.7 42.39 345.73 43.26 341.89 44.93 340.27 52.13 336.24 56.15 332.79 59.17 327.4 60.61 322.22 61.86 318 62.77 312.65 63.63 285.04 63.64 263.14 64.07 244.19 63.06 229.81 58.74 209.96 57.02 197.02 58.16 183.5 61.33 171.13 59.32 163.65 61.33 154.44 67.08 142.94 69.38 136.03 71.4 126.83 68.52 117.91 65.64 112.45 65.64 105.83 67.37 101.8 71.11 99.5 74.85 97.78 75.19 92.61" fill="none" stroke="#fff" stroke-miterlimit="10"/><polygon points="80.48 57.28 83.81 51.4 88.15 47.82 94.29 47.82 99.4 50.89 103.75 54.47 104.45 57.1 102.08 55.08 101.02 54.02 99.43 53.29 97.79 51.8 96.1 51.17 94.41 51.51 92.77 53.1 91.46 55.17 89.97 55.56 87.99 54.55 86.44 53.82 84.95 54.02 83.84 55.66 81.57 58.26 80.17 57.88 80.48 57.28" fill="none" stroke="#fff" stroke-miterlimit="10"/><polygon points="87.52 51.15 88.91 51.02 89.17 49.91 89.71 50.94 90.97 50.88 89.88 51.55 90.68 52.68 89.38 52.2 88.12 52.87 88.76 51.66 87.52 51.15" fill="#fff"/><polygon points="114.02 129.35 110.99 112.68 106.19 105.35 100.38 101.56 96.87 101.56 96.87 103.58 92.04 104.84 86.99 104.09 86.99 105.6 84.97 105.86 84.97 103.83 83.45 103.83 81.68 103.58 81.68 106.36 79.66 107.62 77.89 104.34 76.38 104.34 73.34 104.09 71.32 105.1 70.06 104.59 71.07 102.82 70.06 101.56 66.37 104.13 65.64 110.91 67.53 109.64 69.05 107.62 73.34 106.87 75.36 107.88 76.88 111.41 79.15 112.42 83.2 110.66 85.98 112.17 87.24 113.44 89.83 111.67 91.53 109.14 93.05 108.13 96.87 106.61 100.38 107.37 103.41 108.13 105.68 109.9 107.09 113.75 109.47 119.75 110.99 125.82 112.76 132.64 114.02 129.35" fill="#fff"/><path d="M70.91,159.43s-5.49,17.4-5.86,23.06S67.8,201,69.63,203.22s5.83.9,6.93.36,3.51-17.25,2.23-22.89S70.91,159.43,70.91,159.43Z" fill="none" stroke="#fff" stroke-miterlimit="10"/><path d="M70.91,158.55s-7.51,26.13-7.14,30.9,2.14,13.9,3.45,17,2.48,3.27,4.86,4.72,6.7-4.72,7.06-15.92c0,0-1.49-15.93-3.5-21.95S70.91,158.55,70.91,158.55Z" fill="none" stroke="#fff" stroke-miterlimit="10"/><path d="M70.5,157.32s-2.57,16.57-3.28,22.17-2,13.69,0,20.32,1.87,7.4,4.23,9.33,5.56-2.38,6-3.65,1.38-6.27,0-13.75-1.87-26.28-3.91-29.6S70.5,157.32,70.5,157.32Z" fill="none" stroke="#fff" stroke-miterlimit="10"/><path d="M71.12,158s-1.17,3.41-3.89,10.25-4.74,16.18-4.55,19.49.16,9.33,1.09,12.24,6.06,15.14,10.63,13.69,5.94-11.37,4.4-22C76.7,177.49,71.12,158,71.12,158Z" fill="none" stroke="#fff" stroke-miterlimit="10"/><path d="M71,158.71s-3.92,14.85-4.89,20.48-2.87,17.14-.41,22.1S66,209,71,210.86s7.95-10.13,8-17.31-1.83-9.37-3-19A41.72,41.72,0,0,0,71,158.71Z" fill="none" stroke="#fff" stroke-miterlimit="10"/><path d="M69.64,158.57s-5.49,19.86-5.86,26.32,2.75,21.18,4.58,23.67,5.83,1,6.93.41,3.51-19.69,2.23-26.12S69.64,158.57,69.64,158.57Z" fill="none" stroke="#fff" stroke-miterlimit="10"/><path d="M70.33,157.19s-8.19,26.26-7.82,31,2.14,13.9,3.45,17,2.48,3.27,4.86,4.72,6.7-4.72,7.06-15.92c0,0-1.49-15.93-3.5-21.95S70.33,157.19,70.33,157.19Z" fill="none" stroke="#fff" stroke-miterlimit="10"/><path d="M70.82,157.32S66.66,172.67,66,178.27s-2,13.69,0,20.32,1.87,7.4,4.23,9.33,5.56-2.38,6-3.65,1.38-6.27,0-13.75-1.82-26.15-3.58-29.67Z" fill="none" stroke="#fff" stroke-miterlimit="10"/><path d="M70.56,156.88A93.27,93.27,0,0,0,66,167.07c-2.72,6.84-4.74,16.18-4.55,19.49s.16,9.33,1.09,12.24,6.06,15.14,10.63,13.69,5.94-11.37,4.4-22C75.44,176.27,70.56,156.88,70.56,156.88Z" fill="none" stroke="#fff" stroke-miterlimit="10"/><path d="M70.82,157.32s-5,15-5.95,20.64-2.87,17.14-.41,22.1.28,7.73,5.3,9.57,7.95-10.13,8-17.31-1.83-9.37-3-19A60.74,60.74,0,0,0,70.82,157.32Z" fill="none" stroke="#fff" stroke-miterlimit="10"/></svg>