<svg id="图层_1" data-name="图层 1" xmlns="http://www.w3.org/2000/svg" viewBox="0 0 176.54 318.52"><title>6</title><polygon points="119.92 138.25 122.26 137.48 123.72 133.87 135.68 127.3 150.48 116.2 157.81 107.23 159.88 103.92 159.67 100.19 155.11 92.94 148.9 85.7 144.61 77.31 136.48 71.21 133.79 65.09 129.44 61.95 125.82 60.26 121.6 59.66 118.22 58.57 115.2 56.16 112.06 53.38 112.06 48.19 110.98 47.59 110.98 40.35 111.49 38.53 111.62 32.49 110.98 28.59 109.35 24.19 104.82 20.41 99.79 18.02 96.02 18.9 93 19.41 90.6 21.67 86.95 27.46 85.82 31.48 86.83 34.38 87.08 36.89 87.33 40.92 89.09 45.58 91.23 49.73 93 52.12 93.75 54.13 93.5 58.03 92.62 60.17 86.83 63.57 80.92 64.7 75.25 69.23 71.23 73.38 70.02 76.31 67.7 84.92 68.08 135.77 68.29 141.01 72.92 114.89 74.91 89.11 77 77 74.91 89.11 74.46 96.72 73.28 110.64 72.59 118.83 72.47 120.25 70.62 127.39 70.16 129.17 69.48 131.82 68.48 138.4 67.88 146.57 67.68 158.54 66.68 173.89 62.7 189.24 61.3 196.22 60.9 208.98 62.7 221.54 62.3 230.32 60.7 253.45 60.9 268 59.71 280.16 59.11 285.35 54.12 290.13 48.54 296.71 45.95 297.71 43.95 299.5 40.37 300.7 37.37 302.3 37.37 304.09 37.37 306.68 40.37 306.68 58.11 306.68 61.7 305.56 68.88 305.56 73.46 305.56 77.05 305.56 77.25 294.52 74.46 289.93 74.46 282.36 74.46 275.78 74.46 267.2 76.65 260.62 78.45 252.65 78.45 245.07 77.45 235.7 77.45 229.52 79.25 221.34 84.78 206.48 86.41 199.62 89.08 192.18 92.1 184.85 94.66 178.22 95.94 173.45 95.94 170.43 95.94 166.94 95.94 165.43 97.22 165.66 98.03 167.23 100.53 183.23 102.85 184.58 102.85 188.73 102.85 192.09 105.01 196.09 108.7 205.84 110.68 210.72 112.41 216.31 113.43 221.18 116.79 240.42 117.97 248.61 120.29 268.12 121.41 280.3 121.38 286.13 121.38 290.13 122.26 292.7 127.39 297.35 128.51 296.95 130.36 298.9 137.53 305.56 144.36 305.56 153.03 305.56 153.03 299.56 145.03 291.61 145.03 286.23 141.7 279.56 133.03 236.9 129.7 200.9 124.36 163.56 119.03 133.19 119.03 116.23 123.7 108.23 128.29 102.66 129.48 93.1 134.5 100.27 142.62 106.02 125.73 118.97 123.31 122.51 120.64 122.91 119.03 123.09 119.06 133.34 119.5 135.85 119.92 138.25" fill="none" stroke="#fff" stroke-miterlimit="10"/><polygon points="89.59 36.65 92.72 36.65 94.92 38.22 97.11 38.22 100.09 36.65 104.01 34.77 106.2 34.77 108.08 37.27 108.08 40.41 107.46 42.29 101.03 44.8 98.62 46.37 96.95 47.62 91.31 45.11 89.59 42.45 88.02 39.47 89.59 36.65" fill="none" stroke="#fff" stroke-miterlimit="10"/><polygon points="100.65 40.32 102.94 39.54 103.45 38.46 102.14 38.69 100.65 40.32" fill="none" stroke="#fff" stroke-miterlimit="10"/><polygon points="92.97 40.72 91.49 40.37 91.12 39.28 92.72 39.82 92.97 40.72" fill="none" stroke="#fff" stroke-miterlimit="10"/><path d="M99.21,81.26a2.49,2.49,0,1,1-2.47-2.19A2.34,2.34,0,0,1,99.21,81.26Z" fill="#fff"/><path d="M96.59,72.07a8.75,8.75,0,1,0,8.75,8.75A8.74,8.74,0,0,0,96.59,72.07Zm3,6.19a3,3,0,0,1,.94,1.17,6,6,0,0,1,.35,2.12,3.45,3.45,0,0,1-.58,1.83,7.08,7.08,0,0,1-1.07,1v.89l1.71.45.62,1.68-9.75.06L91.91,86l1-.29L94,85.23l0-.67s.08-.21-.19-.56-.9-.83-1.13-1.17a3.67,3.67,0,0,1-.17-3.06,6.56,6.56,0,0,1,1.29-1.51V77.12l-.91-.58-1-1-.41-1h10.8L101.25,76l-1.79,1Z" fill="#fff"/></svg>