<svg id="图层_1" data-name="图层 1" xmlns="http://www.w3.org/2000/svg" xmlns:xlink="http://www.w3.org/1999/xlink" viewBox="0 0 176.54 368"><defs><clipPath id="clip-path"><polygon points="76 123.26 70 130 70 141.71 73 151.71 76 161.21 91.5 161.21 101.5 152.21 108.5 137.71 105.5 123.26 100 121.61 76 123.26" fill="none"/></clipPath></defs><title>7</title><path d="M120.14,116.65,116,114.59l-6.79-2.64-5.29-3.44-3.38-4.32V98.92l.06-5.47-.5-5.46-1.19-3.5L97,82.36l-2.6-2-3.77-2.26-1.92-.62-2.74,2-3.22,2.12-2.67,1L77,81.88,76.22,83,72.86,83l2.6,3.22L76.15,88l-.55,1.1-3,.41,1.78,1.71-1,1.23-3-.68,2.26,2.67,2.74.34,1.1,1.3,1.37,2.47,1.51,1a27.77,27.77,0,0,0,1.23,2.53c.21.21,1.78,3.77,1.78,3.77l3.42,4.25.75,1.3.62,1.37L84.51,115,80,116.33l-3.56,2.12-3.63,2.47-4,3.56-1.92,2.88-.75,2.47-.72,1.65-3.68,2-3.09,2.61-1.42,2.14H55.86l-2.73-4.87v-9.14l1.9-.83.59-7.36.95-1.78-.24-2.37,2-1.07-1.9-2.95H53.13l-1.42-1.09-2.37-.24-.83.12L42.09,67.6S41.5,62,41.5,61.67V59.29L44.11,58l-.83-6.65L37,22.61l3.09,24.22-1.42.47-5-25.41,1.78,24.93-1.07.36L30.7,24.51l1.07,23.72L32,53.12l1.42,5,1.19,1.42,1.66.12,2.49,8.43,7.36,39.77-1.9,2,.47,22.44-1.42,5.94-2.85,5.94.47,5.11,1.31,6.41L42,166.85l3.21-3.56s5.34.24,6.05.59,3.56-2.14,3.56-2.14l7.6,39.89.71,10.8.12,7.84,1.54,9.5,1.66,8,1.42,3.44.59,12v6.05L67.3,269l.67,9.74,1.54,11.4.83,8.07.12,12.23L69,315.14l-7.36,10-6.17,6.53-5.22,1.78-4.63,1.31-.36,3.68,6.05,1.19,6.29-1.07,13.77-5.7,5.82-1.31,8.9.47.95-1.31-3-14.13-2.26-12.11.24-8.67L84.71,289l3.92-4.87L92,287.59l2.61,7.24.36-11.4-3.8-12.35-4-11-2-2V240.22l.59-7.36L87,225l.95-6.29.95-6.05,1.9,1.07,3.32,9.5,7.6,20.78,6.41,15.67,17.21,45.47.71,7.24v8.07l.83,10.45,1.19.47.71,4.16s3.8,4.51,4.16,4,12.94.83,12.94.83l2.14-4-2.61-4.75-4.51-5.11L138.14,323l-.47-7-3.21-8-1.19-8.9-.53-15.49,4,6.84-4.29-23.27-4.35-10.29-3.85-12.84-1.7-7.36-3.4-19.06-7.08-25.07-1.78-8.47V161.53l.63-4.31,3-4.54,3.91-11.2,3,4.83,2.75,8.43L129,164l.19,7.55-.74,9.63v14.77l-.57,10.19-3.59,6.61L123,218.58l8.87,7.55,4.53-1.32,4.53-6.61-3.4-9.63,2.59-11,2.81-11.91L142.39,171l1.32-6.79-8.11-27.81L129,125.54l-3.29-5.22Z" fill="none" stroke="#fff" stroke-miterlimit="10"/><g clip-path="url(#clip-path)"><polygon points="47.51 146.13 46.36 147.07 45.22 146.13 44.47 146.96 46.36 149.64 48.25 146.96 47.51 146.13" fill="#fff"/><polygon points="47.51 142.01 46.36 142.95 45.22 142.01 44.47 142.83 46.36 145.52 48.25 142.83 47.51 142.01" fill="#fff"/><polygon points="47.51 154.38 46.36 155.31 45.22 154.38 44.47 155.2 46.36 157.88 48.25 155.2 47.51 154.38" fill="#fff"/><polygon points="47.51 150.25 46.36 151.19 45.22 150.25 44.47 151.08 46.36 153.76 48.25 151.08 47.51 150.25" fill="#fff"/><polygon points="51.29 144.07 50.14 145.01 48.99 144.07 48.25 144.89 50.14 147.58 52.03 144.89 51.29 144.07" fill="#fff"/><polygon points="51.29 139.95 50.14 140.89 48.99 139.95 48.25 140.77 50.14 143.46 52.03 140.77 51.29 139.95" fill="#fff"/><polygon points="51.29 152.31 50.14 153.25 48.99 152.31 48.25 153.14 50.14 155.82 52.03 153.14 51.29 152.31" fill="#fff"/><polygon points="51.29 148.19 50.14 149.13 48.99 148.19 48.25 149.01 50.14 151.7 52.03 149.01 51.29 148.19" fill="#fff"/><polygon points="55.07 146.13 53.92 147.07 52.77 146.13 52.03 146.96 53.92 149.64 55.81 146.96 55.07 146.13" fill="#fff"/><polygon points="55.07 142.01 53.92 142.95 52.77 142.01 52.03 142.83 53.92 145.52 55.81 142.83 55.07 142.01" fill="#fff"/><polygon points="55.07 154.38 53.92 155.31 52.77 154.38 52.03 155.2 53.92 157.88 55.81 155.2 55.07 154.38" fill="#fff"/><polygon points="55.07 150.25 53.92 151.19 52.77 150.25 52.03 151.08 53.92 153.76 55.81 151.08 55.07 150.25" fill="#fff"/><polygon points="47.51 162.62 46.36 163.55 45.22 162.62 44.47 163.44 46.36 166.12 48.25 163.44 47.51 162.62" fill="#fff"/><polygon points="47.51 158.5 46.36 159.43 45.22 158.5 44.47 159.32 46.36 162 48.25 159.32 47.51 158.5" fill="#fff"/><polygon points="47.51 170.86 46.36 171.8 45.22 170.86 44.47 171.68 46.36 174.36 48.25 171.68 47.51 170.86" fill="#fff"/><polygon points="47.51 166.74 46.36 167.68 45.22 166.74 44.47 167.56 46.36 170.24 48.25 167.56 47.51 166.74" fill="#fff"/><polygon points="51.29 160.56 50.14 161.49 48.99 160.56 48.25 161.38 50.14 164.06 52.03 161.38 51.29 160.56" fill="#fff"/><polygon points="51.29 156.44 50.14 157.37 48.99 156.44 48.25 157.26 50.14 159.94 52.03 157.26 51.29 156.44" fill="#fff"/><polygon points="51.29 168.8 50.14 169.74 48.99 168.8 48.25 169.62 50.14 172.3 52.03 169.62 51.29 168.8" fill="#fff"/><polygon points="51.29 164.68 50.14 165.61 48.99 164.68 48.25 165.5 50.14 168.18 52.03 165.5 51.29 164.68" fill="#fff"/><polygon points="55.07 162.62 53.92 163.55 52.77 162.62 52.03 163.44 53.92 166.12 55.81 163.44 55.07 162.62" fill="#fff"/><polygon points="55.07 158.5 53.92 159.43 52.77 158.5 52.03 159.32 53.92 162 55.81 159.32 55.07 158.5" fill="#fff"/><polygon points="55.07 170.86 53.92 171.8 52.77 170.86 52.03 171.68 53.92 174.36 55.81 171.68 55.07 170.86" fill="#fff"/><polygon points="55.07 166.74 53.92 167.68 52.77 166.74 52.03 167.56 53.92 170.24 55.81 167.56 55.07 166.74" fill="#fff"/><polygon points="58.85 144.07 57.7 145.01 56.55 144.07 55.81 144.89 57.7 147.58 59.59 144.89 58.85 144.07" fill="#fff"/><polygon points="58.85 139.95 57.7 140.89 56.55 139.95 55.81 140.77 57.7 143.46 59.59 140.77 58.85 139.95" fill="#fff"/><polygon points="58.85 152.31 57.7 153.25 56.55 152.31 55.81 153.14 57.7 155.82 59.59 153.14 58.85 152.31" fill="#fff"/><polygon points="58.85 148.19 57.7 149.13 56.55 148.19 55.81 149.01 57.7 151.7 59.59 149.01 58.85 148.19" fill="#fff"/><polygon points="62.63 146.13 61.48 147.07 60.33 146.13 59.59 146.96 61.48 149.64 63.37 146.96 62.63 146.13" fill="#fff"/><polygon points="62.63 142.01 61.48 142.95 60.33 142.01 59.59 142.83 61.48 145.52 63.37 142.83 62.63 142.01" fill="#fff"/><polygon points="62.63 154.38 61.48 155.31 60.33 154.38 59.59 155.2 61.48 157.88 63.37 155.2 62.63 154.38" fill="#fff"/><polygon points="62.63 150.25 61.48 151.19 60.33 150.25 59.59 151.08 61.48 153.76 63.37 151.08 62.63 150.25" fill="#fff"/><polygon points="58.85 160.56 57.7 161.49 56.55 160.56 55.81 161.38 57.7 164.06 59.59 161.38 58.85 160.56" fill="#fff"/><polygon points="58.85 156.44 57.7 157.37 56.55 156.44 55.81 157.26 57.7 159.94 59.59 157.26 58.85 156.44" fill="#fff"/><polygon points="58.85 168.8 57.7 169.74 56.55 168.8 55.81 169.62 57.7 172.3 59.59 169.62 58.85 168.8" fill="#fff"/><polygon points="58.85 164.68 57.7 165.61 56.55 164.68 55.81 165.5 57.7 168.18 59.59 165.5 58.85 164.68" fill="#fff"/><polygon points="62.63 162.62 61.48 163.55 60.33 162.62 59.59 163.44 61.48 166.12 63.37 163.44 62.63 162.62" fill="#fff"/><polygon points="62.63 158.5 61.48 159.43 60.33 158.5 59.59 159.32 61.48 162 63.37 159.32 62.63 158.5" fill="#fff"/><polygon points="62.63 170.86 61.48 171.8 60.33 170.86 59.59 171.68 61.48 174.36 63.37 171.68 62.63 170.86" fill="#fff"/><polygon points="62.63 166.74 61.48 167.68 60.33 166.74 59.59 167.56 61.48 170.24 63.37 167.56 62.63 166.74" fill="#fff"/><polygon points="66.41 144.07 65.26 145.01 64.11 144.07 63.37 144.89 65.26 147.58 67.15 144.89 66.41 144.07" fill="#fff"/><polygon points="66.41 139.95 65.26 140.89 64.11 139.95 63.37 140.77 65.26 143.46 67.15 140.77 66.41 139.95" fill="#fff"/><polygon points="66.41 152.31 65.26 153.25 64.11 152.31 63.37 153.14 65.26 155.82 67.15 153.14 66.41 152.31" fill="#fff"/><polygon points="66.41 148.19 65.26 149.13 64.11 148.19 63.37 149.01 65.26 151.7 67.15 149.01 66.41 148.19" fill="#fff"/><polygon points="70.19 146.13 69.04 147.07 67.89 146.13 67.15 146.96 69.04 149.64 70.93 146.96 70.19 146.13" fill="#fff"/><polygon points="70.19 142.01 69.04 142.95 67.89 142.01 67.15 142.83 69.04 145.52 70.93 142.83 70.19 142.01" fill="#fff"/><polygon points="70.19 154.38 69.04 155.31 67.89 154.38 67.15 155.2 69.04 157.88 70.93 155.2 70.19 154.38" fill="#fff"/><polygon points="70.19 150.25 69.04 151.19 67.89 150.25 67.15 151.08 69.04 153.76 70.93 151.08 70.19 150.25" fill="#fff"/><polygon points="66.41 160.56 65.26 161.49 64.11 160.56 63.37 161.38 65.26 164.06 67.15 161.38 66.41 160.56" fill="#fff"/><polygon points="66.41 156.44 65.26 157.37 64.11 156.44 63.37 157.26 65.26 159.94 67.15 157.26 66.41 156.44" fill="#fff"/><polygon points="66.41 168.8 65.26 169.74 64.11 168.8 63.37 169.62 65.26 172.3 67.15 169.62 66.41 168.8" fill="#fff"/><polygon points="66.41 164.68 65.26 165.61 64.11 164.68 63.37 165.5 65.26 168.18 67.15 165.5 66.41 164.68" fill="#fff"/><polygon points="70.19 162.62 69.04 163.55 67.89 162.62 67.15 163.44 69.04 166.12 70.93 163.44 70.19 162.62" fill="#fff"/><polygon points="70.19 158.5 69.04 159.43 67.89 158.5 67.15 159.32 69.04 162 70.93 159.32 70.19 158.5" fill="#fff"/><polygon points="70.19 170.86 69.04 171.8 67.89 170.86 67.15 171.68 69.04 174.36 70.93 171.68 70.19 170.86" fill="#fff"/><polygon points="70.19 166.74 69.04 167.68 67.89 166.74 67.15 167.56 69.04 170.24 70.93 167.56 70.19 166.74" fill="#fff"/><polygon points="73.97 144.07 72.82 145.01 71.67 144.07 70.93 144.89 72.82 147.58 74.71 144.89 73.97 144.07" fill="#fff"/><polygon points="73.97 139.95 72.82 140.89 71.67 139.95 70.93 140.77 72.82 143.46 74.71 140.77 73.97 139.95" fill="#fff"/><polygon points="73.97 152.31 72.82 153.25 71.67 152.31 70.93 153.14 72.82 155.82 74.71 153.14 73.97 152.31" fill="#fff"/><polygon points="73.97 148.19 72.82 149.13 71.67 148.19 70.93 149.01 72.82 151.7 74.71 149.01 73.97 148.19" fill="#fff"/><polygon points="77.75 146.13 76.6 147.07 75.45 146.13 74.71 146.96 76.6 149.64 78.49 146.96 77.75 146.13" fill="#fff"/><polygon points="77.75 142.01 76.6 142.95 75.45 142.01 74.71 142.83 76.6 145.52 78.49 142.83 77.75 142.01" fill="#fff"/><polygon points="77.75 154.38 76.6 155.31 75.45 154.38 74.71 155.2 76.6 157.88 78.49 155.2 77.75 154.38" fill="#fff"/><polygon points="77.75 150.25 76.6 151.19 75.45 150.25 74.71 151.08 76.6 153.76 78.49 151.08 77.75 150.25" fill="#fff"/><polygon points="73.97 160.56 72.82 161.49 71.67 160.56 70.93 161.38 72.82 164.06 74.71 161.38 73.97 160.56" fill="#fff"/><polygon points="73.97 156.44 72.82 157.37 71.67 156.44 70.93 157.26 72.82 159.94 74.71 157.26 73.97 156.44" fill="#fff"/><polygon points="73.97 168.8 72.82 169.74 71.67 168.8 70.93 169.62 72.82 172.3 74.71 169.62 73.97 168.8" fill="#fff"/><polygon points="73.97 164.68 72.82 165.61 71.67 164.68 70.93 165.5 72.82 168.18 74.71 165.5 73.97 164.68" fill="#fff"/><polygon points="77.75 162.62 76.6 163.55 75.45 162.62 74.71 163.44 76.6 166.12 78.49 163.44 77.75 162.62" fill="#fff"/><polygon points="77.75 158.5 76.6 159.43 75.45 158.5 74.71 159.32 76.6 162 78.49 159.32 77.75 158.5" fill="#fff"/><polygon points="77.75 170.86 76.6 171.8 75.45 170.86 74.71 171.68 76.6 174.36 78.49 171.68 77.75 170.86" fill="#fff"/><polygon points="77.75 166.74 76.6 167.68 75.45 166.74 74.71 167.56 76.6 170.24 78.49 167.56 77.75 166.74" fill="#fff"/><polygon points="81.53 144.07 80.38 145.01 79.23 144.07 78.49 144.89 80.38 147.58 82.27 144.89 81.53 144.07" fill="#fff"/><polygon points="81.53 139.95 80.38 140.89 79.23 139.95 78.49 140.77 80.38 143.46 82.27 140.77 81.53 139.95" fill="#fff"/><polygon points="81.53 152.31 80.38 153.25 79.23 152.31 78.49 153.14 80.38 155.82 82.27 153.14 81.53 152.31" fill="#fff"/><polygon points="81.53 148.19 80.38 149.13 79.23 148.19 78.49 149.01 80.38 151.7 82.27 149.01 81.53 148.19" fill="#fff"/><polygon points="85.31 146.13 84.16 147.07 83.01 146.13 82.27 146.96 84.16 149.64 86.05 146.96 85.31 146.13" fill="#fff"/><polygon points="85.31 142.01 84.16 142.95 83.01 142.01 82.27 142.83 84.16 145.52 86.05 142.83 85.31 142.01" fill="#fff"/><polygon points="85.31 154.38 84.16 155.31 83.01 154.38 82.27 155.2 84.16 157.88 86.05 155.2 85.31 154.38" fill="#fff"/><polygon points="85.31 150.25 84.16 151.19 83.01 150.25 82.27 151.08 84.16 153.76 86.05 151.08 85.31 150.25" fill="#fff"/><polygon points="81.53 160.56 80.38 161.49 79.23 160.56 78.49 161.38 80.38 164.06 82.27 161.38 81.53 160.56" fill="#fff"/><polygon points="81.53 156.44 80.38 157.37 79.23 156.44 78.49 157.26 80.38 159.94 82.27 157.26 81.53 156.44" fill="#fff"/><polygon points="81.53 168.8 80.38 169.74 79.23 168.8 78.49 169.62 80.38 172.3 82.27 169.62 81.53 168.8" fill="#fff"/><polygon points="81.53 164.68 80.38 165.61 79.23 164.68 78.49 165.5 80.38 168.18 82.27 165.5 81.53 164.68" fill="#fff"/><polygon points="85.31 162.62 84.16 163.55 83.01 162.62 82.27 163.44 84.16 166.12 86.05 163.44 85.31 162.62" fill="#fff"/><polygon points="85.31 158.5 84.16 159.43 83.01 158.5 82.27 159.32 84.16 162 86.05 159.32 85.31 158.5" fill="#fff"/><polygon points="85.31 170.86 84.16 171.8 83.01 170.86 82.27 171.68 84.16 174.36 86.05 171.68 85.31 170.86" fill="#fff"/><polygon points="85.31 166.74 84.16 167.68 83.01 166.74 82.27 167.56 84.16 170.24 86.05 167.56 85.31 166.74" fill="#fff"/><polygon points="89.08 144.07 87.94 145.01 86.79 144.07 86.05 144.89 87.94 147.58 89.83 144.89 89.08 144.07" fill="#fff"/><polygon points="89.08 139.95 87.94 140.89 86.79 139.95 86.05 140.77 87.94 143.46 89.83 140.77 89.08 139.95" fill="#fff"/><polygon points="89.08 152.31 87.94 153.25 86.79 152.31 86.05 153.14 87.94 155.82 89.83 153.14 89.08 152.31" fill="#fff"/><polygon points="89.08 148.19 87.94 149.13 86.79 148.19 86.05 149.01 87.94 151.7 89.83 149.01 89.08 148.19" fill="#fff"/><polygon points="92.86 146.13 91.72 147.07 90.57 146.13 89.83 146.96 91.72 149.64 93.61 146.96 92.86 146.13" fill="#fff"/><polygon points="92.86 142.01 91.72 142.95 90.57 142.01 89.83 142.83 91.72 145.52 93.61 142.83 92.86 142.01" fill="#fff"/><polygon points="92.86 154.38 91.72 155.31 90.57 154.38 89.83 155.2 91.72 157.88 93.61 155.2 92.86 154.38" fill="#fff"/><polygon points="92.86 150.25 91.72 151.19 90.57 150.25 89.83 151.08 91.72 153.76 93.61 151.08 92.86 150.25" fill="#fff"/><polygon points="89.08 160.56 87.94 161.49 86.79 160.56 86.05 161.38 87.94 164.06 89.83 161.38 89.08 160.56" fill="#fff"/><polygon points="89.08 156.44 87.94 157.37 86.79 156.44 86.05 157.26 87.94 159.94 89.83 157.26 89.08 156.44" fill="#fff"/><polygon points="89.08 168.8 87.94 169.74 86.79 168.8 86.05 169.62 87.94 172.3 89.83 169.62 89.08 168.8" fill="#fff"/><polygon points="89.08 164.68 87.94 165.61 86.79 164.68 86.05 165.5 87.94 168.18 89.83 165.5 89.08 164.68" fill="#fff"/><polygon points="92.86 162.62 91.72 163.55 90.57 162.62 89.83 163.44 91.72 166.12 93.61 163.44 92.86 162.62" fill="#fff"/><polygon points="92.86 158.5 91.72 159.43 90.57 158.5 89.83 159.32 91.72 162 93.61 159.32 92.86 158.5" fill="#fff"/><polygon points="92.86 170.86 91.72 171.8 90.57 170.86 89.83 171.68 91.72 174.36 93.61 171.68 92.86 170.86" fill="#fff"/><polygon points="92.86 166.74 91.72 167.68 90.57 166.74 89.83 167.56 91.72 170.24 93.61 167.56 92.86 166.74" fill="#fff"/><polygon points="47.37 112.74 46.23 113.68 45.08 112.74 44.34 113.56 46.23 116.24 48.12 113.56 47.37 112.74" fill="#fff"/><polygon points="47.37 108.62 46.23 109.56 45.08 108.62 44.34 109.44 46.23 112.12 48.12 109.44 47.37 108.62" fill="#fff"/><polygon points="47.37 120.98 46.23 121.92 45.08 120.98 44.34 121.8 46.23 124.48 48.12 121.8 47.37 120.98" fill="#fff"/><polygon points="47.37 116.86 46.23 117.8 45.08 116.86 44.34 117.68 46.23 120.36 48.12 117.68 47.37 116.86" fill="#fff"/><polygon points="51.15 110.68 50.01 111.61 48.86 110.68 48.12 111.5 50.01 114.18 51.9 111.5 51.15 110.68" fill="#fff"/><polygon points="51.15 106.56 50.01 107.49 48.86 106.56 48.12 107.38 50.01 110.06 51.9 107.38 51.15 106.56" fill="#fff"/><polygon points="51.15 118.92 50.01 119.86 48.86 118.92 48.12 119.74 50.01 122.42 51.9 119.74 51.15 118.92" fill="#fff"/><polygon points="51.15 114.8 50.01 115.74 48.86 114.8 48.12 115.62 50.01 118.3 51.9 115.62 51.15 114.8" fill="#fff"/><polygon points="54.93 112.74 53.78 113.68 52.64 112.74 51.9 113.56 53.78 116.24 55.67 113.56 54.93 112.74" fill="#fff"/><polygon points="54.93 108.62 53.78 109.56 52.64 108.62 51.9 109.44 53.78 112.12 55.67 109.44 54.93 108.62" fill="#fff"/><polygon points="54.93 120.98 53.78 121.92 52.64 120.98 51.9 121.8 53.78 124.48 55.67 121.8 54.93 120.98" fill="#fff"/><polygon points="54.93 116.86 53.78 117.8 52.64 116.86 51.9 117.68 53.78 120.36 55.67 117.68 54.93 116.86" fill="#fff"/><polygon points="47.37 129.22 46.23 130.16 45.08 129.22 44.34 130.04 46.23 132.73 48.12 130.04 47.37 129.22" fill="#fff"/><polygon points="47.37 125.1 46.23 126.04 45.08 125.1 44.34 125.92 46.23 128.61 48.12 125.92 47.37 125.1" fill="#fff"/><polygon points="47.37 137.47 46.23 138.4 45.08 137.47 44.34 138.29 46.23 140.97 48.12 138.29 47.37 137.47" fill="#fff"/><polygon points="47.37 133.34 46.23 134.28 45.08 133.34 44.34 134.17 46.23 136.85 48.12 134.17 47.37 133.34" fill="#fff"/><polygon points="51.15 127.16 50.01 128.1 48.86 127.16 48.12 127.98 50.01 130.67 51.9 127.98 51.15 127.16" fill="#fff"/><polygon points="51.15 123.04 50.01 123.98 48.86 123.04 48.12 123.86 50.01 126.55 51.9 123.86 51.15 123.04" fill="#fff"/><polygon points="51.15 135.41 50.01 136.34 48.86 135.41 48.12 136.23 50.01 138.91 51.9 136.23 51.15 135.41" fill="#fff"/><polygon points="51.15 131.28 50.01 132.22 48.86 131.28 48.12 132.1 50.01 134.79 51.9 132.1 51.15 131.28" fill="#fff"/><polygon points="54.93 129.22 53.78 130.16 52.64 129.22 51.9 130.04 53.78 132.73 55.67 130.04 54.93 129.22" fill="#fff"/><polygon points="54.93 125.1 53.78 126.04 52.64 125.1 51.9 125.92 53.78 128.61 55.67 125.92 54.93 125.1" fill="#fff"/><polygon points="54.93 137.47 53.78 138.4 52.64 137.47 51.9 138.29 53.78 140.97 55.67 138.29 54.93 137.47" fill="#fff"/><polygon points="54.93 133.34 53.78 134.28 52.64 133.34 51.9 134.17 53.78 136.85 55.67 134.17 54.93 133.34" fill="#fff"/><polygon points="58.71 110.68 57.56 111.61 56.42 110.68 55.67 111.5 57.56 114.18 59.45 111.5 58.71 110.68" fill="#fff"/><polygon points="58.71 106.56 57.56 107.49 56.42 106.56 55.67 107.38 57.56 110.06 59.45 107.38 58.71 106.56" fill="#fff"/><polygon points="58.71 118.92 57.56 119.86 56.42 118.92 55.67 119.74 57.56 122.42 59.45 119.74 58.71 118.92" fill="#fff"/><polygon points="58.71 114.8 57.56 115.74 56.42 114.8 55.67 115.62 57.56 118.3 59.45 115.62 58.71 114.8" fill="#fff"/><polygon points="62.49 112.74 61.34 113.68 60.2 112.74 59.45 113.56 61.34 116.24 63.23 113.56 62.49 112.74" fill="#fff"/><polygon points="62.49 108.62 61.34 109.56 60.2 108.62 59.45 109.44 61.34 112.12 63.23 109.44 62.49 108.62" fill="#fff"/><polygon points="62.49 120.98 61.34 121.92 60.2 120.98 59.45 121.8 61.34 124.48 63.23 121.8 62.49 120.98" fill="#fff"/><polygon points="62.49 116.86 61.34 117.8 60.2 116.86 59.45 117.68 61.34 120.36 63.23 117.68 62.49 116.86" fill="#fff"/><polygon points="58.71 127.16 57.56 128.1 56.42 127.16 55.67 127.98 57.56 130.67 59.45 127.98 58.71 127.16" fill="#fff"/><polygon points="58.71 123.04 57.56 123.98 56.42 123.04 55.67 123.86 57.56 126.55 59.45 123.86 58.71 123.04" fill="#fff"/><polygon points="58.71 135.41 57.56 136.34 56.42 135.41 55.67 136.23 57.56 138.91 59.45 136.23 58.71 135.41" fill="#fff"/><polygon points="58.71 131.28 57.56 132.22 56.42 131.28 55.67 132.1 57.56 134.79 59.45 132.1 58.71 131.28" fill="#fff"/><polygon points="62.49 129.22 61.34 130.16 60.2 129.22 59.45 130.04 61.34 132.73 63.23 130.04 62.49 129.22" fill="#fff"/><polygon points="62.49 125.1 61.34 126.04 60.2 125.1 59.45 125.92 61.34 128.61 63.23 125.92 62.49 125.1" fill="#fff"/><polygon points="62.49 137.47 61.34 138.4 60.2 137.47 59.45 138.29 61.34 140.97 63.23 138.29 62.49 137.47" fill="#fff"/><polygon points="62.49 133.34 61.34 134.28 60.2 133.34 59.45 134.17 61.34 136.85 63.23 134.17 62.49 133.34" fill="#fff"/><polygon points="66.27 110.68 65.12 111.61 63.97 110.68 63.23 111.5 65.12 114.18 67.01 111.5 66.27 110.68" fill="#fff"/><polygon points="66.27 106.56 65.12 107.49 63.97 106.56 63.23 107.38 65.12 110.06 67.01 107.38 66.27 106.56" fill="#fff"/><polygon points="66.27 118.92 65.12 119.86 63.97 118.92 63.23 119.74 65.12 122.42 67.01 119.74 66.27 118.92" fill="#fff"/><polygon points="66.27 114.8 65.12 115.74 63.97 114.8 63.23 115.62 65.12 118.3 67.01 115.62 66.27 114.8" fill="#fff"/><polygon points="70.05 112.74 68.9 113.68 67.75 112.74 67.01 113.56 68.9 116.24 70.79 113.56 70.05 112.74" fill="#fff"/><polygon points="70.05 108.62 68.9 109.56 67.75 108.62 67.01 109.44 68.9 112.12 70.79 109.44 70.05 108.62" fill="#fff"/><polygon points="70.05 120.98 68.9 121.92 67.75 120.98 67.01 121.8 68.9 124.48 70.79 121.8 70.05 120.98" fill="#fff"/><polygon points="70.05 116.86 68.9 117.8 67.75 116.86 67.01 117.68 68.9 120.36 70.79 117.68 70.05 116.86" fill="#fff"/><polygon points="66.27 127.16 65.12 128.1 63.97 127.16 63.23 127.98 65.12 130.67 67.01 127.98 66.27 127.16" fill="#fff"/><polygon points="66.27 123.04 65.12 123.98 63.97 123.04 63.23 123.86 65.12 126.55 67.01 123.86 66.27 123.04" fill="#fff"/><polygon points="66.27 135.41 65.12 136.34 63.97 135.41 63.23 136.23 65.12 138.91 67.01 136.23 66.27 135.41" fill="#fff"/><polygon points="66.27 131.28 65.12 132.22 63.97 131.28 63.23 132.1 65.12 134.79 67.01 132.1 66.27 131.28" fill="#fff"/><polygon points="70.05 129.22 68.9 130.16 67.75 129.22 67.01 130.04 68.9 132.73 70.79 130.04 70.05 129.22" fill="#fff"/><polygon points="70.05 125.1 68.9 126.04 67.75 125.1 67.01 125.92 68.9 128.61 70.79 125.92 70.05 125.1" fill="#fff"/><polygon points="70.05 137.47 68.9 138.4 67.75 137.47 67.01 138.29 68.9 140.97 70.79 138.29 70.05 137.47" fill="#fff"/><polygon points="70.05 133.34 68.9 134.28 67.75 133.34 67.01 134.17 68.9 136.85 70.79 134.17 70.05 133.34" fill="#fff"/><polygon points="73.83 110.68 72.68 111.61 71.53 110.68 70.79 111.5 72.68 114.18 74.57 111.5 73.83 110.68" fill="#fff"/><polygon points="73.83 106.56 72.68 107.49 71.53 106.56 70.79 107.38 72.68 110.06 74.57 107.38 73.83 106.56" fill="#fff"/><polygon points="73.83 118.92 72.68 119.86 71.53 118.92 70.79 119.74 72.68 122.42 74.57 119.74 73.83 118.92" fill="#fff"/><polygon points="73.83 114.8 72.68 115.74 71.53 114.8 70.79 115.62 72.68 118.3 74.57 115.62 73.83 114.8" fill="#fff"/><polygon points="77.61 112.74 76.46 113.68 75.31 112.74 74.57 113.56 76.46 116.24 78.35 113.56 77.61 112.74" fill="#fff"/><polygon points="77.61 108.62 76.46 109.56 75.31 108.62 74.57 109.44 76.46 112.12 78.35 109.44 77.61 108.62" fill="#fff"/><polygon points="77.61 120.98 76.46 121.92 75.31 120.98 74.57 121.8 76.46 124.48 78.35 121.8 77.61 120.98" fill="#fff"/><polygon points="77.61 116.86 76.46 117.8 75.31 116.86 74.57 117.68 76.46 120.36 78.35 117.68 77.61 116.86" fill="#fff"/><polygon points="73.83 127.16 72.68 128.1 71.53 127.16 70.79 127.98 72.68 130.67 74.57 127.98 73.83 127.16" fill="#fff"/><polygon points="73.83 123.04 72.68 123.98 71.53 123.04 70.79 123.86 72.68 126.55 74.57 123.86 73.83 123.04" fill="#fff"/><polygon points="73.83 135.41 72.68 136.34 71.53 135.41 70.79 136.23 72.68 138.91 74.57 136.23 73.83 135.41" fill="#fff"/><polygon points="73.83 131.28 72.68 132.22 71.53 131.28 70.79 132.1 72.68 134.79 74.57 132.1 73.83 131.28" fill="#fff"/><polygon points="77.61 129.22 76.46 130.16 75.31 129.22 74.57 130.04 76.46 132.73 78.35 130.04 77.61 129.22" fill="#fff"/><polygon points="77.61 125.1 76.46 126.04 75.31 125.1 74.57 125.92 76.46 128.61 78.35 125.92 77.61 125.1" fill="#fff"/><polygon points="77.61 137.47 76.46 138.4 75.31 137.47 74.57 138.29 76.46 140.97 78.35 138.29 77.61 137.47" fill="#fff"/><polygon points="77.61 133.34 76.46 134.28 75.31 133.34 74.57 134.17 76.46 136.85 78.35 134.17 77.61 133.34" fill="#fff"/><polygon points="81.39 110.68 80.24 111.61 79.09 110.68 78.35 111.5 80.24 114.18 82.13 111.5 81.39 110.68" fill="#fff"/><polygon points="81.39 106.56 80.24 107.49 79.09 106.56 78.35 107.38 80.24 110.06 82.13 107.38 81.39 106.56" fill="#fff"/><polygon points="81.39 118.92 80.24 119.86 79.09 118.92 78.35 119.74 80.24 122.42 82.13 119.74 81.39 118.92" fill="#fff"/><polygon points="81.39 114.8 80.24 115.74 79.09 114.8 78.35 115.62 80.24 118.3 82.13 115.62 81.39 114.8" fill="#fff"/><polygon points="85.17 112.74 84.02 113.68 82.87 112.74 82.13 113.56 84.02 116.24 85.91 113.56 85.17 112.74" fill="#fff"/><polygon points="85.17 108.62 84.02 109.56 82.87 108.62 82.13 109.44 84.02 112.12 85.91 109.44 85.17 108.62" fill="#fff"/><polygon points="85.17 120.98 84.02 121.92 82.87 120.98 82.13 121.8 84.02 124.48 85.91 121.8 85.17 120.98" fill="#fff"/><polygon points="85.17 116.86 84.02 117.8 82.87 116.86 82.13 117.68 84.02 120.36 85.91 117.68 85.17 116.86" fill="#fff"/><polygon points="81.39 127.16 80.24 128.1 79.09 127.16 78.35 127.98 80.24 130.67 82.13 127.98 81.39 127.16" fill="#fff"/><polygon points="81.39 123.04 80.24 123.98 79.09 123.04 78.35 123.86 80.24 126.55 82.13 123.86 81.39 123.04" fill="#fff"/><polygon points="81.39 135.41 80.24 136.34 79.09 135.41 78.35 136.23 80.24 138.91 82.13 136.23 81.39 135.41" fill="#fff"/><polygon points="81.39 131.28 80.24 132.22 79.09 131.28 78.35 132.1 80.24 134.79 82.13 132.1 81.39 131.28" fill="#fff"/><polygon points="85.17 129.22 84.02 130.16 82.87 129.22 82.13 130.04 84.02 132.73 85.91 130.04 85.17 129.22" fill="#fff"/><polygon points="85.17 125.1 84.02 126.04 82.87 125.1 82.13 125.92 84.02 128.61 85.91 125.92 85.17 125.1" fill="#fff"/><polygon points="85.17 137.47 84.02 138.4 82.87 137.47 82.13 138.29 84.02 140.97 85.91 138.29 85.17 137.47" fill="#fff"/><polygon points="85.17 133.34 84.02 134.28 82.87 133.34 82.13 134.17 84.02 136.85 85.91 134.17 85.17 133.34" fill="#fff"/><polygon points="88.95 110.68 87.8 111.61 86.65 110.68 85.91 111.5 87.8 114.18 89.69 111.5 88.95 110.68" fill="#fff"/><polygon points="88.95 106.56 87.8 107.49 86.65 106.56 85.91 107.38 87.8 110.06 89.69 107.38 88.95 106.56" fill="#fff"/><polygon points="88.95 118.92 87.8 119.86 86.65 118.92 85.91 119.74 87.8 122.42 89.69 119.74 88.95 118.92" fill="#fff"/><polygon points="88.95 114.8 87.8 115.74 86.65 114.8 85.91 115.62 87.8 118.3 89.69 115.62 88.95 114.8" fill="#fff"/><polygon points="92.73 112.74 91.58 113.68 90.43 112.74 89.69 113.56 91.58 116.24 93.47 113.56 92.73 112.74" fill="#fff"/><polygon points="92.73 108.62 91.58 109.56 90.43 108.62 89.69 109.44 91.58 112.12 93.47 109.44 92.73 108.62" fill="#fff"/><polygon points="92.73 120.98 91.58 121.92 90.43 120.98 89.69 121.8 91.58 124.48 93.47 121.8 92.73 120.98" fill="#fff"/><polygon points="92.73 116.86 91.58 117.8 90.43 116.86 89.69 117.68 91.58 120.36 93.47 117.68 92.73 116.86" fill="#fff"/><polygon points="88.95 127.16 87.8 128.1 86.65 127.16 85.91 127.98 87.8 130.67 89.69 127.98 88.95 127.16" fill="#fff"/><polygon points="88.95 123.04 87.8 123.98 86.65 123.04 85.91 123.86 87.8 126.55 89.69 123.86 88.95 123.04" fill="#fff"/><polygon points="88.95 135.41 87.8 136.34 86.65 135.41 85.91 136.23 87.8 138.91 89.69 136.23 88.95 135.41" fill="#fff"/><polygon points="88.95 131.28 87.8 132.22 86.65 131.28 85.91 132.1 87.8 134.79 89.69 132.1 88.95 131.28" fill="#fff"/><polygon points="92.73 129.22 91.58 130.16 90.43 129.22 89.69 130.04 91.58 132.73 93.47 130.04 92.73 129.22" fill="#fff"/><polygon points="92.73 125.1 91.58 126.04 90.43 125.1 89.69 125.92 91.58 128.61 93.47 125.92 92.73 125.1" fill="#fff"/><polygon points="92.73 137.47 91.58 138.4 90.43 137.47 89.69 138.29 91.58 140.97 93.47 138.29 92.73 137.47" fill="#fff"/><polygon points="92.73 133.34 91.58 134.28 90.43 133.34 89.69 134.17 91.58 136.85 93.47 134.17 92.73 133.34" fill="#fff"/><polygon points="96.64 144.07 95.5 145.01 94.35 144.07 93.61 144.89 95.5 147.58 97.39 144.89 96.64 144.07" fill="#fff"/><polygon points="96.64 139.95 95.5 140.89 94.35 139.95 93.61 140.77 95.5 143.46 97.39 140.77 96.64 139.95" fill="#fff"/><polygon points="96.64 152.31 95.5 153.25 94.35 152.31 93.61 153.14 95.5 155.82 97.39 153.14 96.64 152.31" fill="#fff"/><polygon points="96.64 148.19 95.5 149.13 94.35 148.19 93.61 149.01 95.5 151.7 97.39 149.01 96.64 148.19" fill="#fff"/><polygon points="100.42 146.13 99.28 147.07 98.13 146.13 97.39 146.96 99.28 149.64 101.17 146.96 100.42 146.13" fill="#fff"/><polygon points="100.42 142.01 99.28 142.95 98.13 142.01 97.39 142.83 99.28 145.52 101.17 142.83 100.42 142.01" fill="#fff"/><polygon points="100.42 154.38 99.28 155.31 98.13 154.38 97.39 155.2 99.28 157.88 101.17 155.2 100.42 154.38" fill="#fff"/><polygon points="100.42 150.25 99.28 151.19 98.13 150.25 97.39 151.08 99.28 153.76 101.17 151.08 100.42 150.25" fill="#fff"/><polygon points="96.64 160.56 95.5 161.49 94.35 160.56 93.61 161.38 95.5 164.06 97.39 161.38 96.64 160.56" fill="#fff"/><polygon points="96.64 156.44 95.5 157.37 94.35 156.44 93.61 157.26 95.5 159.94 97.39 157.26 96.64 156.44" fill="#fff"/><polygon points="96.64 168.8 95.5 169.74 94.35 168.8 93.61 169.62 95.5 172.3 97.39 169.62 96.64 168.8" fill="#fff"/><polygon points="96.64 164.68 95.5 165.61 94.35 164.68 93.61 165.5 95.5 168.18 97.39 165.5 96.64 164.68" fill="#fff"/><polygon points="100.42 162.62 99.28 163.55 98.13 162.62 97.39 163.44 99.28 166.12 101.17 163.44 100.42 162.62" fill="#fff"/><polygon points="100.42 158.5 99.28 159.43 98.13 158.5 97.39 159.32 99.28 162 101.17 159.32 100.42 158.5" fill="#fff"/><polygon points="100.42 170.86 99.28 171.8 98.13 170.86 97.39 171.68 99.28 174.36 101.17 171.68 100.42 170.86" fill="#fff"/><polygon points="100.42 166.74 99.28 167.68 98.13 166.74 97.39 167.56 99.28 170.24 101.17 167.56 100.42 166.74" fill="#fff"/><polygon points="104.2 144.07 103.06 145.01 101.91 144.07 101.17 144.89 103.06 147.58 104.94 144.89 104.2 144.07" fill="#fff"/><polygon points="104.2 139.95 103.06 140.89 101.91 139.95 101.17 140.77 103.06 143.46 104.94 140.77 104.2 139.95" fill="#fff"/><polygon points="104.2 152.31 103.06 153.25 101.91 152.31 101.17 153.14 103.06 155.82 104.94 153.14 104.2 152.31" fill="#fff"/><polygon points="104.2 148.19 103.06 149.13 101.91 148.19 101.17 149.01 103.06 151.7 104.94 149.01 104.2 148.19" fill="#fff"/><polygon points="107.98 146.13 106.83 147.07 105.69 146.13 104.94 146.96 106.83 149.64 108.72 146.96 107.98 146.13" fill="#fff"/><polygon points="107.98 142.01 106.83 142.95 105.69 142.01 104.94 142.83 106.83 145.52 108.72 142.83 107.98 142.01" fill="#fff"/><polygon points="107.98 154.38 106.83 155.31 105.69 154.38 104.94 155.2 106.83 157.88 108.72 155.2 107.98 154.38" fill="#fff"/><polygon points="107.98 150.25 106.83 151.19 105.69 150.25 104.94 151.08 106.83 153.76 108.72 151.08 107.98 150.25" fill="#fff"/><polygon points="104.2 160.56 103.06 161.49 101.91 160.56 101.17 161.38 103.06 164.06 104.94 161.38 104.2 160.56" fill="#fff"/><polygon points="104.2 156.44 103.06 157.37 101.91 156.44 101.17 157.26 103.06 159.94 104.94 157.26 104.2 156.44" fill="#fff"/><polygon points="104.2 168.8 103.06 169.74 101.91 168.8 101.17 169.62 103.06 172.3 104.94 169.62 104.2 168.8" fill="#fff"/><polygon points="104.2 164.68 103.06 165.61 101.91 164.68 101.17 165.5 103.06 168.18 104.94 165.5 104.2 164.68" fill="#fff"/><polygon points="107.98 162.62 106.83 163.55 105.69 162.62 104.94 163.44 106.83 166.12 108.72 163.44 107.98 162.62" fill="#fff"/><polygon points="107.98 158.5 106.83 159.43 105.69 158.5 104.94 159.32 106.83 162 108.72 159.32 107.98 158.5" fill="#fff"/><polygon points="107.98 170.86 106.83 171.8 105.69 170.86 104.94 171.68 106.83 174.36 108.72 171.68 107.98 170.86" fill="#fff"/><polygon points="107.98 166.74 106.83 167.68 105.69 166.74 104.94 167.56 106.83 170.24 108.72 167.56 107.98 166.74" fill="#fff"/><polygon points="111.76 144.07 110.61 145.01 109.47 144.07 108.72 144.89 110.61 147.58 112.5 144.89 111.76 144.07" fill="#fff"/><polygon points="111.76 139.95 110.61 140.89 109.47 139.95 108.72 140.77 110.61 143.46 112.5 140.77 111.76 139.95" fill="#fff"/><polygon points="111.76 152.31 110.61 153.25 109.47 152.31 108.72 153.14 110.61 155.82 112.5 153.14 111.76 152.31" fill="#fff"/><polygon points="111.76 148.19 110.61 149.13 109.47 148.19 108.72 149.01 110.61 151.7 112.5 149.01 111.76 148.19" fill="#fff"/><polygon points="115.54 146.13 114.39 147.07 113.25 146.13 112.5 146.96 114.39 149.64 116.28 146.96 115.54 146.13" fill="#fff"/><polygon points="115.54 142.01 114.39 142.95 113.25 142.01 112.5 142.83 114.39 145.52 116.28 142.83 115.54 142.01" fill="#fff"/><polygon points="115.54 154.38 114.39 155.31 113.25 154.38 112.5 155.2 114.39 157.88 116.28 155.2 115.54 154.38" fill="#fff"/><polygon points="115.54 150.25 114.39 151.19 113.25 150.25 112.5 151.08 114.39 153.76 116.28 151.08 115.54 150.25" fill="#fff"/><polygon points="111.76 160.56 110.61 161.49 109.47 160.56 108.72 161.38 110.61 164.06 112.5 161.38 111.76 160.56" fill="#fff"/><polygon points="111.76 156.44 110.61 157.37 109.47 156.44 108.72 157.26 110.61 159.94 112.5 157.26 111.76 156.44" fill="#fff"/><polygon points="111.76 168.8 110.61 169.74 109.47 168.8 108.72 169.62 110.61 172.3 112.5 169.62 111.76 168.8" fill="#fff"/><polygon points="111.76 164.68 110.61 165.61 109.47 164.68 108.72 165.5 110.61 168.18 112.5 165.5 111.76 164.68" fill="#fff"/><polygon points="115.54 162.62 114.39 163.55 113.25 162.62 112.5 163.44 114.39 166.12 116.28 163.44 115.54 162.62" fill="#fff"/><polygon points="115.54 158.5 114.39 159.43 113.25 158.5 112.5 159.32 114.39 162 116.28 159.32 115.54 158.5" fill="#fff"/><polygon points="115.54 170.86 114.39 171.8 113.25 170.86 112.5 171.68 114.39 174.36 116.28 171.68 115.54 170.86" fill="#fff"/><polygon points="115.54 166.74 114.39 167.68 113.25 166.74 112.5 167.56 114.39 170.24 116.28 167.56 115.54 166.74" fill="#fff"/><polygon points="119.32 144.07 118.17 145.01 117.02 144.07 116.28 144.89 118.17 147.58 120.06 144.89 119.32 144.07" fill="#fff"/><polygon points="119.32 139.95 118.17 140.89 117.02 139.95 116.28 140.77 118.17 143.46 120.06 140.77 119.32 139.95" fill="#fff"/><polygon points="119.32 152.31 118.17 153.25 117.02 152.31 116.28 153.14 118.17 155.82 120.06 153.14 119.32 152.31" fill="#fff"/><polygon points="119.32 148.19 118.17 149.13 117.02 148.19 116.28 149.01 118.17 151.7 120.06 149.01 119.32 148.19" fill="#fff"/><polygon points="123.1 146.13 121.95 147.07 120.8 146.13 120.06 146.96 121.95 149.64 123.84 146.96 123.1 146.13" fill="#fff"/><polygon points="123.1 142.01 121.95 142.95 120.8 142.01 120.06 142.83 121.95 145.52 123.84 142.83 123.1 142.01" fill="#fff"/><polygon points="123.1 154.38 121.95 155.31 120.8 154.38 120.06 155.2 121.95 157.88 123.84 155.2 123.1 154.38" fill="#fff"/><polygon points="123.1 150.25 121.95 151.19 120.8 150.25 120.06 151.08 121.95 153.76 123.84 151.08 123.1 150.25" fill="#fff"/><polygon points="119.32 160.56 118.17 161.49 117.02 160.56 116.28 161.38 118.17 164.06 120.06 161.38 119.32 160.56" fill="#fff"/><polygon points="119.32 156.44 118.17 157.37 117.02 156.44 116.28 157.26 118.17 159.94 120.06 157.26 119.32 156.44" fill="#fff"/><polygon points="119.32 168.8 118.17 169.74 117.02 168.8 116.28 169.62 118.17 172.3 120.06 169.62 119.32 168.8" fill="#fff"/><polygon points="119.32 164.68 118.17 165.61 117.02 164.68 116.28 165.5 118.17 168.18 120.06 165.5 119.32 164.68" fill="#fff"/><polygon points="123.1 162.62 121.95 163.55 120.8 162.62 120.06 163.44 121.95 166.12 123.84 163.44 123.1 162.62" fill="#fff"/><polygon points="123.1 158.5 121.95 159.43 120.8 158.5 120.06 159.32 121.95 162 123.84 159.32 123.1 158.5" fill="#fff"/><polygon points="123.1 170.86 121.95 171.8 120.8 170.86 120.06 171.68 121.95 174.36 123.84 171.68 123.1 170.86" fill="#fff"/><polygon points="123.1 166.74 121.95 167.68 120.8 166.74 120.06 167.56 121.95 170.24 123.84 167.56 123.1 166.74" fill="#fff"/><polygon points="126.88 144.07 125.73 145.01 124.58 144.07 123.84 144.89 125.73 147.58 127.62 144.89 126.88 144.07" fill="#fff"/><polygon points="126.88 139.95 125.73 140.89 124.58 139.95 123.84 140.77 125.73 143.46 127.62 140.77 126.88 139.95" fill="#fff"/><polygon points="126.88 152.31 125.73 153.25 124.58 152.31 123.84 153.14 125.73 155.82 127.62 153.14 126.88 152.31" fill="#fff"/><polygon points="126.88 148.19 125.73 149.13 124.58 148.19 123.84 149.01 125.73 151.7 127.62 149.01 126.88 148.19" fill="#fff"/><polygon points="130.66 146.13 129.51 147.07 128.36 146.13 127.62 146.96 129.51 149.64 131.4 146.96 130.66 146.13" fill="#fff"/><polygon points="130.66 142.01 129.51 142.95 128.36 142.01 127.62 142.83 129.51 145.52 131.4 142.83 130.66 142.01" fill="#fff"/><polygon points="130.66 154.38 129.51 155.31 128.36 154.38 127.62 155.2 129.51 157.88 131.4 155.2 130.66 154.38" fill="#fff"/><polygon points="130.66 150.25 129.51 151.19 128.36 150.25 127.62 151.08 129.51 153.76 131.4 151.08 130.66 150.25" fill="#fff"/><polygon points="126.88 160.56 125.73 161.49 124.58 160.56 123.84 161.38 125.73 164.06 127.62 161.38 126.88 160.56" fill="#fff"/><polygon points="126.88 156.44 125.73 157.37 124.58 156.44 123.84 157.26 125.73 159.94 127.62 157.26 126.88 156.44" fill="#fff"/><polygon points="126.88 168.8 125.73 169.74 124.58 168.8 123.84 169.62 125.73 172.3 127.62 169.62 126.88 168.8" fill="#fff"/><polygon points="126.88 164.68 125.73 165.61 124.58 164.68 123.84 165.5 125.73 168.18 127.62 165.5 126.88 164.68" fill="#fff"/><polygon points="130.66 162.62 129.51 163.55 128.36 162.62 127.62 163.44 129.51 166.12 131.4 163.44 130.66 162.62" fill="#fff"/><polygon points="130.66 158.5 129.51 159.43 128.36 158.5 127.62 159.32 129.51 162 131.4 159.32 130.66 158.5" fill="#fff"/><polygon points="130.66 170.86 129.51 171.8 128.36 170.86 127.62 171.68 129.51 174.36 131.4 171.68 130.66 170.86" fill="#fff"/><polygon points="130.66 166.74 129.51 167.68 128.36 166.74 127.62 167.56 129.51 170.24 131.4 167.56 130.66 166.74" fill="#fff"/><polygon points="134.44 144.07 133.29 145.01 132.14 144.07 131.4 144.89 133.29 147.58 135.18 144.89 134.44 144.07" fill="#fff"/><polygon points="134.44 139.95 133.29 140.89 132.14 139.95 131.4 140.77 133.29 143.46 135.18 140.77 134.44 139.95" fill="#fff"/><polygon points="134.44 152.31 133.29 153.25 132.14 152.31 131.4 153.14 133.29 155.82 135.18 153.14 134.44 152.31" fill="#fff"/><polygon points="134.44 148.19 133.29 149.13 132.14 148.19 131.4 149.01 133.29 151.7 135.18 149.01 134.44 148.19" fill="#fff"/><polygon points="138.22 146.13 137.07 147.07 135.92 146.13 135.18 146.96 137.07 149.64 138.96 146.96 138.22 146.13" fill="#fff"/><polygon points="138.22 142.01 137.07 142.95 135.92 142.01 135.18 142.83 137.07 145.52 138.96 142.83 138.22 142.01" fill="#fff"/><polygon points="138.22 154.38 137.07 155.31 135.92 154.38 135.18 155.2 137.07 157.88 138.96 155.2 138.22 154.38" fill="#fff"/><polygon points="138.22 150.25 137.07 151.19 135.92 150.25 135.18 151.08 137.07 153.76 138.96 151.08 138.22 150.25" fill="#fff"/><polygon points="134.44 160.56 133.29 161.49 132.14 160.56 131.4 161.38 133.29 164.06 135.18 161.38 134.44 160.56" fill="#fff"/><polygon points="134.44 156.44 133.29 157.37 132.14 156.44 131.4 157.26 133.29 159.94 135.18 157.26 134.44 156.44" fill="#fff"/><polygon points="134.44 168.8 133.29 169.74 132.14 168.8 131.4 169.62 133.29 172.3 135.18 169.62 134.44 168.8" fill="#fff"/><polygon points="134.44 164.68 133.29 165.61 132.14 164.68 131.4 165.5 133.29 168.18 135.18 165.5 134.44 164.68" fill="#fff"/><polygon points="138.22 162.62 137.07 163.55 135.92 162.62 135.18 163.44 137.07 166.12 138.96 163.44 138.22 162.62" fill="#fff"/><polygon points="138.22 158.5 137.07 159.43 135.92 158.5 135.18 159.32 137.07 162 138.96 159.32 138.22 158.5" fill="#fff"/><polygon points="138.22 170.86 137.07 171.8 135.92 170.86 135.18 171.68 137.07 174.36 138.96 171.68 138.22 170.86" fill="#fff"/><polygon points="138.22 166.74 137.07 167.68 135.92 166.74 135.18 167.56 137.07 170.24 138.96 167.56 138.22 166.74" fill="#fff"/><polygon points="96.51 110.68 95.36 111.61 94.21 110.68 93.47 111.5 95.36 114.18 97.25 111.5 96.51 110.68" fill="#fff"/><polygon points="96.51 106.56 95.36 107.49 94.21 106.56 93.47 107.38 95.36 110.06 97.25 107.38 96.51 106.56" fill="#fff"/><polygon points="96.51 118.92 95.36 119.86 94.21 118.92 93.47 119.74 95.36 122.42 97.25 119.74 96.51 118.92" fill="#fff"/><polygon points="96.51 114.8 95.36 115.74 94.21 114.8 93.47 115.62 95.36 118.3 97.25 115.62 96.51 114.8" fill="#fff"/><polygon points="100.28 112.74 99.14 113.68 97.99 112.74 97.25 113.56 99.14 116.24 101.03 113.56 100.28 112.74" fill="#fff"/><polygon points="100.28 108.62 99.14 109.56 97.99 108.62 97.25 109.44 99.14 112.12 101.03 109.44 100.28 108.62" fill="#fff"/><polygon points="100.28 120.98 99.14 121.92 97.99 120.98 97.25 121.8 99.14 124.48 101.03 121.8 100.28 120.98" fill="#fff"/><polygon points="100.28 116.86 99.14 117.8 97.99 116.86 97.25 117.68 99.14 120.36 101.03 117.68 100.28 116.86" fill="#fff"/><polygon points="96.51 127.16 95.36 128.1 94.21 127.16 93.47 127.98 95.36 130.67 97.25 127.98 96.51 127.16" fill="#fff"/><polygon points="96.51 123.04 95.36 123.98 94.21 123.04 93.47 123.86 95.36 126.55 97.25 123.86 96.51 123.04" fill="#fff"/><polygon points="96.51 135.41 95.36 136.34 94.21 135.41 93.47 136.23 95.36 138.91 97.25 136.23 96.51 135.41" fill="#fff"/><polygon points="96.51 131.28 95.36 132.22 94.21 131.28 93.47 132.1 95.36 134.79 97.25 132.1 96.51 131.28" fill="#fff"/><polygon points="100.28 129.22 99.14 130.16 97.99 129.22 97.25 130.04 99.14 132.73 101.03 130.04 100.28 129.22" fill="#fff"/><polygon points="100.28 125.1 99.14 126.04 97.99 125.1 97.25 125.92 99.14 128.61 101.03 125.92 100.28 125.1" fill="#fff"/><polygon points="100.28 137.47 99.14 138.4 97.99 137.47 97.25 138.29 99.14 140.97 101.03 138.29 100.28 137.47" fill="#fff"/><polygon points="100.28 133.34 99.14 134.28 97.99 133.34 97.25 134.17 99.14 136.85 101.03 134.17 100.28 133.34" fill="#fff"/><polygon points="104.06 110.68 102.92 111.61 101.77 110.68 101.03 111.5 102.92 114.18 104.81 111.5 104.06 110.68" fill="#fff"/><polygon points="104.06 106.56 102.92 107.49 101.77 106.56 101.03 107.38 102.92 110.06 104.81 107.38 104.06 106.56" fill="#fff"/><polygon points="104.06 118.92 102.92 119.86 101.77 118.92 101.03 119.74 102.92 122.42 104.81 119.74 104.06 118.92" fill="#fff"/><polygon points="104.06 114.8 102.92 115.74 101.77 114.8 101.03 115.62 102.92 118.3 104.81 115.62 104.06 114.8" fill="#fff"/><polygon points="107.84 112.74 106.7 113.68 105.55 112.74 104.81 113.56 106.7 116.24 108.59 113.56 107.84 112.74" fill="#fff"/><polygon points="107.84 108.62 106.7 109.56 105.55 108.62 104.81 109.44 106.7 112.12 108.59 109.44 107.84 108.62" fill="#fff"/><polygon points="107.84 120.98 106.7 121.92 105.55 120.98 104.81 121.8 106.7 124.48 108.59 121.8 107.84 120.98" fill="#fff"/><polygon points="107.84 116.86 106.7 117.8 105.55 116.86 104.81 117.68 106.7 120.36 108.59 117.68 107.84 116.86" fill="#fff"/><polygon points="104.06 127.16 102.92 128.1 101.77 127.16 101.03 127.98 102.92 130.67 104.81 127.98 104.06 127.16" fill="#fff"/><polygon points="104.06 123.04 102.92 123.98 101.77 123.04 101.03 123.86 102.92 126.55 104.81 123.86 104.06 123.04" fill="#fff"/><polygon points="104.06 135.41 102.92 136.34 101.77 135.41 101.03 136.23 102.92 138.91 104.81 136.23 104.06 135.41" fill="#fff"/><polygon points="104.06 131.28 102.92 132.22 101.77 131.28 101.03 132.1 102.92 134.79 104.81 132.1 104.06 131.28" fill="#fff"/><polygon points="107.84 129.22 106.7 130.16 105.55 129.22 104.81 130.04 106.7 132.73 108.59 130.04 107.84 129.22" fill="#fff"/><polygon points="107.84 125.1 106.7 126.04 105.55 125.1 104.81 125.92 106.7 128.61 108.59 125.92 107.84 125.1" fill="#fff"/><polygon points="107.84 137.47 106.7 138.4 105.55 137.47 104.81 138.29 106.7 140.97 108.59 138.29 107.84 137.47" fill="#fff"/><polygon points="107.84 133.34 106.7 134.28 105.55 133.34 104.81 134.17 106.7 136.85 108.59 134.17 107.84 133.34" fill="#fff"/><polygon points="111.62 110.68 110.47 111.61 109.33 110.68 108.59 111.5 110.47 114.18 112.36 111.5 111.62 110.68" fill="#fff"/><polygon points="111.62 106.56 110.47 107.49 109.33 106.56 108.59 107.38 110.47 110.06 112.36 107.38 111.62 106.56" fill="#fff"/><polygon points="111.62 118.92 110.47 119.86 109.33 118.92 108.59 119.74 110.47 122.42 112.36 119.74 111.62 118.92" fill="#fff"/><polygon points="111.62 114.8 110.47 115.74 109.33 114.8 108.59 115.62 110.47 118.3 112.36 115.62 111.62 114.8" fill="#fff"/><polygon points="115.4 112.74 114.25 113.68 113.11 112.74 112.36 113.56 114.25 116.24 116.14 113.56 115.4 112.74" fill="#fff"/><polygon points="115.4 108.62 114.25 109.56 113.11 108.62 112.36 109.44 114.25 112.12 116.14 109.44 115.4 108.62" fill="#fff"/><polygon points="115.4 120.98 114.25 121.92 113.11 120.98 112.36 121.8 114.25 124.48 116.14 121.8 115.4 120.98" fill="#fff"/><polygon points="115.4 116.86 114.25 117.8 113.11 116.86 112.36 117.68 114.25 120.36 116.14 117.68 115.4 116.86" fill="#fff"/><polygon points="111.62 127.16 110.47 128.1 109.33 127.16 108.59 127.98 110.47 130.67 112.36 127.98 111.62 127.16" fill="#fff"/><polygon points="111.62 123.04 110.47 123.98 109.33 123.04 108.59 123.86 110.47 126.55 112.36 123.86 111.62 123.04" fill="#fff"/><polygon points="111.62 135.41 110.47 136.34 109.33 135.41 108.59 136.23 110.47 138.91 112.36 136.23 111.62 135.41" fill="#fff"/><polygon points="111.62 131.28 110.47 132.22 109.33 131.28 108.59 132.1 110.47 134.79 112.36 132.1 111.62 131.28" fill="#fff"/><polygon points="115.4 129.22 114.25 130.16 113.11 129.22 112.36 130.04 114.25 132.73 116.14 130.04 115.4 129.22" fill="#fff"/><polygon points="115.4 125.1 114.25 126.04 113.11 125.1 112.36 125.92 114.25 128.61 116.14 125.92 115.4 125.1" fill="#fff"/><polygon points="115.4 137.47 114.25 138.4 113.11 137.47 112.36 138.29 114.25 140.97 116.14 138.29 115.4 137.47" fill="#fff"/><polygon points="115.4 133.34 114.25 134.28 113.11 133.34 112.36 134.17 114.25 136.85 116.14 134.17 115.4 133.34" fill="#fff"/><polygon points="119.18 110.68 118.03 111.61 116.89 110.68 116.14 111.5 118.03 114.18 119.92 111.5 119.18 110.68" fill="#fff"/><polygon points="119.18 106.56 118.03 107.49 116.89 106.56 116.14 107.38 118.03 110.06 119.92 107.38 119.18 106.56" fill="#fff"/><polygon points="119.18 118.92 118.03 119.86 116.89 118.92 116.14 119.74 118.03 122.42 119.92 119.74 119.18 118.92" fill="#fff"/><polygon points="119.18 114.8 118.03 115.74 116.89 114.8 116.14 115.62 118.03 118.3 119.92 115.62 119.18 114.8" fill="#fff"/><polygon points="122.96 112.74 121.81 113.68 120.67 112.74 119.92 113.56 121.81 116.24 123.7 113.56 122.96 112.74" fill="#fff"/><polygon points="122.96 108.62 121.81 109.56 120.67 108.62 119.92 109.44 121.81 112.12 123.7 109.44 122.96 108.62" fill="#fff"/><polygon points="122.96 120.98 121.81 121.92 120.67 120.98 119.92 121.8 121.81 124.48 123.7 121.8 122.96 120.98" fill="#fff"/><polygon points="122.96 116.86 121.81 117.8 120.67 116.86 119.92 117.68 121.81 120.36 123.7 117.68 122.96 116.86" fill="#fff"/><polygon points="119.18 127.16 118.03 128.1 116.89 127.16 116.14 127.98 118.03 130.67 119.92 127.98 119.18 127.16" fill="#fff"/><polygon points="119.18 123.04 118.03 123.98 116.89 123.04 116.14 123.86 118.03 126.55 119.92 123.86 119.18 123.04" fill="#fff"/><polygon points="119.18 135.41 118.03 136.34 116.89 135.41 116.14 136.23 118.03 138.91 119.92 136.23 119.18 135.41" fill="#fff"/><polygon points="119.18 131.28 118.03 132.22 116.89 131.28 116.14 132.1 118.03 134.79 119.92 132.1 119.18 131.28" fill="#fff"/><polygon points="122.96 129.22 121.81 130.16 120.67 129.22 119.92 130.04 121.81 132.73 123.7 130.04 122.96 129.22" fill="#fff"/><polygon points="122.96 125.1 121.81 126.04 120.67 125.1 119.92 125.92 121.81 128.61 123.7 125.92 122.96 125.1" fill="#fff"/><polygon points="122.96 137.47 121.81 138.4 120.67 137.47 119.92 138.29 121.81 140.97 123.7 138.29 122.96 137.47" fill="#fff"/><polygon points="122.96 133.34 121.81 134.28 120.67 133.34 119.92 134.17 121.81 136.85 123.7 134.17 122.96 133.34" fill="#fff"/><polygon points="126.74 110.68 125.59 111.61 124.44 110.68 123.7 111.5 125.59 114.18 127.48 111.5 126.74 110.68" fill="#fff"/><polygon points="126.74 106.56 125.59 107.49 124.44 106.56 123.7 107.38 125.59 110.06 127.48 107.38 126.74 106.56" fill="#fff"/><polygon points="126.74 118.92 125.59 119.86 124.44 118.92 123.7 119.74 125.59 122.42 127.48 119.74 126.74 118.92" fill="#fff"/><polygon points="126.74 114.8 125.59 115.74 124.44 114.8 123.7 115.62 125.59 118.3 127.48 115.62 126.74 114.8" fill="#fff"/><polygon points="130.52 112.74 129.37 113.68 128.22 112.74 127.48 113.56 129.37 116.24 131.26 113.56 130.52 112.74" fill="#fff"/><polygon points="130.52 108.62 129.37 109.56 128.22 108.62 127.48 109.44 129.37 112.12 131.26 109.44 130.52 108.62" fill="#fff"/><polygon points="130.52 120.98 129.37 121.92 128.22 120.98 127.48 121.8 129.37 124.48 131.26 121.8 130.52 120.98" fill="#fff"/><polygon points="130.52 116.86 129.37 117.8 128.22 116.86 127.48 117.68 129.37 120.36 131.26 117.68 130.52 116.86" fill="#fff"/><polygon points="126.74 127.16 125.59 128.1 124.44 127.16 123.7 127.98 125.59 130.67 127.48 127.98 126.74 127.16" fill="#fff"/><polygon points="126.74 123.04 125.59 123.98 124.44 123.04 123.7 123.86 125.59 126.55 127.48 123.86 126.74 123.04" fill="#fff"/><polygon points="126.74 135.41 125.59 136.34 124.44 135.41 123.7 136.23 125.59 138.91 127.48 136.23 126.74 135.41" fill="#fff"/><polygon points="126.74 131.28 125.59 132.22 124.44 131.28 123.7 132.1 125.59 134.79 127.48 132.1 126.74 131.28" fill="#fff"/><polygon points="130.52 129.22 129.37 130.16 128.22 129.22 127.48 130.04 129.37 132.73 131.26 130.04 130.52 129.22" fill="#fff"/><polygon points="130.52 125.1 129.37 126.04 128.22 125.1 127.48 125.92 129.37 128.61 131.26 125.92 130.52 125.1" fill="#fff"/><polygon points="130.52 137.47 129.37 138.4 128.22 137.47 127.48 138.29 129.37 140.97 131.26 138.29 130.52 137.47" fill="#fff"/><polygon points="130.52 133.34 129.37 134.28 128.22 133.34 127.48 134.17 129.37 136.85 131.26 134.17 130.52 133.34" fill="#fff"/><polygon points="134.3 110.68 133.15 111.61 132 110.68 131.26 111.5 133.15 114.18 135.04 111.5 134.3 110.68" fill="#fff"/><polygon points="134.3 106.56 133.15 107.49 132 106.56 131.26 107.38 133.15 110.06 135.04 107.38 134.3 106.56" fill="#fff"/><polygon points="134.3 118.92 133.15 119.86 132 118.92 131.26 119.74 133.15 122.42 135.04 119.74 134.3 118.92" fill="#fff"/><polygon points="134.3 114.8 133.15 115.74 132 114.8 131.26 115.62 133.15 118.3 135.04 115.62 134.3 114.8" fill="#fff"/><polygon points="138.08 112.74 136.93 113.68 135.78 112.74 135.04 113.56 136.93 116.24 138.82 113.56 138.08 112.74" fill="#fff"/><polygon points="138.08 108.62 136.93 109.56 135.78 108.62 135.04 109.44 136.93 112.12 138.82 109.44 138.08 108.62" fill="#fff"/><polygon points="138.08 120.98 136.93 121.92 135.78 120.98 135.04 121.8 136.93 124.48 138.82 121.8 138.08 120.98" fill="#fff"/><polygon points="138.08 116.86 136.93 117.8 135.78 116.86 135.04 117.68 136.93 120.36 138.82 117.68 138.08 116.86" fill="#fff"/><polygon points="134.3 127.16 133.15 128.1 132 127.16 131.26 127.98 133.15 130.67 135.04 127.98 134.3 127.16" fill="#fff"/><polygon points="134.3 123.04 133.15 123.98 132 123.04 131.26 123.86 133.15 126.55 135.04 123.86 134.3 123.04" fill="#fff"/><polygon points="134.3 135.41 133.15 136.34 132 135.41 131.26 136.23 133.15 138.91 135.04 136.23 134.3 135.41" fill="#fff"/><polygon points="134.3 131.28 133.15 132.22 132 131.28 131.26 132.1 133.15 134.79 135.04 132.1 134.3 131.28" fill="#fff"/><polygon points="138.08 129.22 136.93 130.16 135.78 129.22 135.04 130.04 136.93 132.73 138.82 130.04 138.08 129.22" fill="#fff"/><polygon points="138.08 125.1 136.93 126.04 135.78 125.1 135.04 125.92 136.93 128.61 138.82 125.92 138.08 125.1" fill="#fff"/><polygon points="138.08 137.47 136.93 138.4 135.78 137.47 135.04 138.29 136.93 140.97 138.82 138.29 138.08 137.47" fill="#fff"/><polygon points="138.08 133.34 136.93 134.28 135.78 133.34 135.04 134.17 136.93 136.85 138.82 134.17 138.08 133.34" fill="#fff"/></g></svg>