<svg id="图层_1" data-name="图层 1" xmlns="http://www.w3.org/2000/svg" viewBox="0 0 187.84 387.84"><title>画板 8</title><path d="M119.71,134.64l-4.15-2.06-6.79-2.64-5.29-3.44-3.38-4.32v-5.26l.06-5.47-.5-5.46-1.19-3.5-1.85-2.12-2.6-2-3.77-2.26-1.92-.62-2.74,2L82.37,99.6l-2.67,1-3.08-.75-.82,1.1-3.36.07,2.6,3.22.68,1.78-.55,1.1-3,.41,1.78,1.71-1,1.23-3-.68,2.26,2.67,2.74.34,1.1,1.3,1.37,2.47,1.51,1a27.77,27.77,0,0,0,1.23,2.53c.21.21,1.78,3.77,1.78,3.77l3.42,4.25.75,1.3.62,1.37L84.08,133l-4.52,1.37L76,136.45l-3.63,2.47-4,3.56-1.92,2.88-.75,2.47-.72,1.65-3.68,2-3.09,2.61-1.42,2.14H55.44l-2.73-4.87v-9.14l1.9-.83L55.2,134l.95-1.78-.24-2.37,2-1.07L56,125.86H52.7l-1.42-1.09-2.37-.24-.83.12L41.66,85.6s-.59-5.58-.59-5.94V77.29L43.68,76l-.83-6.65L36.56,40.6l3.09,24.22-1.42.47-5-25.41L35,64.82l-1.07.36L30.27,42.5l1.07,23.72.24,4.89,1.42,5,1.19,1.42,1.66.12,2.49,8.43,7.36,39.77-1.9,2,.47,22.44-1.42,5.94L40,162.17l.47,5.11,1.31,6.41-.24,11.16,3.21-3.56s5.34.24,6.05.59,3.56-2.14,3.56-2.14L62,219.63l.71,10.8.12,7.84,1.54,9.5,1.66,8,1.42,3.44.59,12v6.05l-1.15,9.74.67,9.74,1.54,11.4.83,8.07L70,328.38l-1.42,4.75-7.36,10-6.17,6.53-5.22,1.78-4.63,1.31-.36,3.68,6.05,1.19,6.29-1.07L71,350.82l5.82-1.31,8.9.47.95-1.31-3-14.13-2.26-12.11.24-8.67L84.28,307l3.92-4.87,3.32,3.44,2.61,7.24.36-11.4-3.8-12.35-4-11-2-2V258.22l.59-7.36L86.54,243l.95-6.29.95-6.05,1.9,1.07,3.32,9.5,7.6,20.78,6.41,15.67,17.21,45.47.71,7.24v8.07l.83,10.45,1.19.47.71,4.16s3.8,4.51,4.16,4,12.94.83,12.94.83l2.14-4L145,349.63l-4.51-5.11L137.71,341l-.47-7L134,326l-1.19-8.9-.53-15.49,4,6.84-4.29-23.27-4.35-10.29-3.85-12.84-1.7-7.36-3.4-19.06-7.08-25.07-1.78-8.47V179.52l.63-4.31,3-4.54,3.91-11.2,3,4.83,2.75,8.43,5.31,9.24.19,7.55-.74,9.63v14.77l-.57,10.19-3.59,6.61-1.32,5.85,8.87,7.55,4.53-1.32,4.53-6.61-3.4-9.63,2.59-11,2.81-11.91L142,189l1.32-6.79-8.11-27.81-6.57-10.83-3.29-5.22Z" fill="none" stroke="#fff" stroke-miterlimit="10"/><path d="M75.57,197,77,194.14l.94-1.47,1.7-2.13h1.42l3.12,3.85,1.61,2.5.33,3.63s-1.64,2.47-2.11,2.31-2.25-.65-2.25-.65l0-2.16,1.08-.39-.47-2.9-1.9-.92-2.19,1-.52,1.87.49,1.49h1.11l.16,2.7H77.47l-1.9-1.75V197Z" fill="#fff"/><polygon points="89.08 140.32 88.98 140.33 89.03 140.37 89.08 140.32" fill="none"/><path d="M94.83,173.65l.74-.82,1.15.94,1.15-.94L98,173l1-.87-.36-.51.74-.82.58.47,1.14-1,1.91-4-.59-.84.74-.82.47.38.56-1.17-1.77-2.52.74-.82,1.15.94,1.15-.94.23.25.64-1.32-.12-.17.44-.48.86-1.79-1.3-1.85.74-.82,1,.85-.54-2.62-1.38-2,.74-.82.07.06-.65-3.13-.16-.23.09-.1-.34-1.61-1.65,2.34-1.89-2.68.74-.82,1.15.94,1.15-.94.33.37-.5-2.39-1,1.4-1.75-2.49L101,140l-.6.85-.89-1.27-1.49.1.49.54-1.89,2.68-1.89-2.68.3-.34-1.6.11-.6.85-.54-.77-1.39.1,0,.05L89,142.93l-1.75-2.49-1.82.12-.21.3-.19-.27-2,.14-1.55,2.19-1.4-2-4.49.31-2.37,2.66.7.57,1.15-.94.74.82-1.89,2.68-1.55-2.19-.88,1,.53.59-1.89,2.68-.56-.79v1.89l.56.45,1.15-.94.74.82-1.89,2.68-.56-.79v2.2l.69.57,1.15-.94.74.82-1.89,2.68-.69-1v2l.69.57,1.15-.94.74.82-1.89,2.68-.06-.09.41,1.36.8-.65.74.82-1,1.49.66,2.21.38.43-.18.26.45,1.5.47-.52,1.15.94,1.15-.94.74.82L74,172.21l-1.24-1.76,1,3.1.26.21,1.15-.94.74.82-1.46,2.08.45,1.44.27-.22.74.82-.57.8.2.64h.93l.18-.2.24.2h1.81L79,179l.18.2h1.58l-1-1.44.74-.82,1.15.94,1.15-.94.74.82-1,1.44h1.58l.18-.2.24.2h1.81l.24-.2.18.2h1.58l-1-1.44.74-.82,1.15.94,1.15-.94.74.82-1,1.44h1l1.5-1.35-1.52-2.15.74-.82,1.15.94,1.15-.94.74.82-.22.31,1.16-1Zm1.89-1.44-1.89-2.68.74-.82,1.15.94,1.15-.94.74.82ZM75.93,153,74,155.72,72.16,153l.74-.82,1.15.94,1.15-.94Zm-.14-2.49.74-.82,1.15.94,1.15-.94.74.82-1.89,2.68Zm.88,3.73,1.15.94,1.15-.94.74.82-1.89,2.68-1.89-2.68Zm22.54-4.55,1.15.94,1.15-.94.74.82-1.89,2.68-1.89-2.68Zm-.74-3.3.74-.82,1.15.94,1.15-.94.74.82-1.89,2.68ZM81.6,164l-1.89-2.68.74-.82,1.15.94,1.15-.94.74.82Zm1.89,1.44-1.89,2.68-1.89-2.68.74-.82,1.15.94,1.15-.94Zm9.45-7.62-1.89-2.68.74-.82,1.15.94,1.15-.94.74.82Zm1.89,1.44-1.89,2.68-1.89-2.68.74-.82,1.15.94,1.15-.94Zm-5.67-3.5L87.27,153l.74-.82,1.15.94,1.15-.94.74.82Zm-1.15.62,1.15.94,1.15-.94.74.82-1.89,2.68-1.89-2.68Zm-2.63,1.44-1.89-2.68.74-.82,1.15.94,1.15-.94.74.82Zm-3.78-2.06L79.71,153l.74-.82,1.15.94,1.15-.94.74.82Zm-1.15.62,1.15.94,1.15-.94.74.82-1.89,2.68-1.89-2.68Zm3.78,6.18,1.15.94,1.15-.94.74.82L85.38,166l-1.89-2.68Zm1.15-.62-1.89-2.68.74-.82,1.15.94,1.15-.94.74.82ZM88,160.46l1.15.94,1.15-.94.74.82L89.16,164l-1.89-2.68Zm3.78,2.06,1.15.94,1.15-.94.74.82L92.94,166l-1.89-2.68Zm3.78,2.06,1.15.94,1.15-.94.74.82-1.89,2.68-1.89-2.68Zm1.15-.62-1.89-2.68.74-.82,1.15.94,1.15-.94.74.82Zm0-4.12-1.89-2.68.74-.82,1.15.94,1.15-.94.74.82Zm0-4.12L94.83,153l.74-.82,1.15.94,1.15-.94.74.82Zm2.63-1.44,1.15.94,1.15-.94.74.82-1.89,2.68-1.89-2.68Zm-2.77-3.1-1.89-2.68.74-.82,1.15.94,1.15-.94.74.82Zm-3.78-2.06-1.89-2.68.74-.82,1.15.94,1.15-.94.74.82Zm-1.15.62,1.15.94,1.15-.94.74.82-1.89,2.68-1.89-2.68ZM89,151.18l-1.89-2.68.74-.82,1.15.94,1.15-.94.74.82Zm-3.78-2.06-1.89-2.68.74-.82,1.15.94,1.15-.94.74.82Zm-1.15.62,1.15.94,1.15-.94.74.82-1.89,2.68-1.89-2.68Zm-2.63,1.44-1.89-2.68.74-.82,1.15.94,1.15-.94.74.82Zm-4.79,7.23,1.15.94L79,158.4l.74.82-1.89,2.68-1.89-2.68Zm0,4.12,1.15.94,1.15-.94.74.82L77.82,166l-1.89-2.68Zm0,4.12,1.15.94,1.15-.94.74.82-1.89,2.68-1.89-2.68Zm3.78,2.06,1.15.94,1.15-.94.74.82-1.89,2.68-1.89-2.68Zm3.78,2.06,1.15.94,1.15-.94.74.82-1.89,2.68-1.89-2.68Zm1.15-.62-1.89-2.68.74-.82,1.15.94,1.15-.94.74.82ZM88,168.7l1.15.94,1.15-.94.74.82-1.89,2.68-1.89-2.68Zm1.15-.62-1.89-2.68.74-.82,1.15.94,1.15-.94.74.82Zm2.63-1.44,1.15.94,1.15-.94.74.82-1.89,2.68-1.89-2.68Zm8.71,3.5-1.89-2.68.74-.82,1.15.94,1.15-.94.74.82Zm0-4.12-1.89-2.68.74-.82,1.15.94,1.15-.94.74.82Zm0-4.12-1.89-2.68.74-.82,1.15.94,1.15-.94.74.82Zm3.78-2.06-1.89-2.68.74-.82,1.15.94,1.15-.94.74.82Zm1.89-6.8-1.89,2.68L102.39,153l.74-.82,1.15.94,1.15-.94ZM103,147.67l1.15.94,1.15-.94.74.82-1.89,2.68-1.89-2.68Zm-3.78-6.18,1.15.94,1.15-.94.74.82L100.36,145l-1.89-2.68Zm-3.78,2.06,1.15.94,1.15-.94.74.82-1.89,2.68-1.89-2.68Zm-3.78-2.06,1.15.94,1.15-.94.74.82L92.8,145l-1.89-2.68Zm-2.63,3,1.15-.94.74.82L89,147.05l-1.89-2.68.74-.82Zm-4.93-3,1.15.94,1.15-.94.74.82L85.25,145l-1.89-2.68Zm-2.63,3,1.15-.94.74.82-1.89,2.68-1.89-2.68.74-.82Zm-4.93-3,1.15.94,1.15-.94.74.82L77.69,145l-1.89-2.68Zm0,4.12,1.15.94,1.15-.94.74.82-1.89,2.68-1.89-2.68ZM72,148.49l.74-.82,1.15.94,1.15-.94.74.82-1.89,2.68Zm.88,7.85,1.15.94,1.15-.94.74.82L74,159.84l-1.89-2.68Zm0,4.12,1.15.94,1.15-.94.74.82L74,164l-1.89-2.68ZM74,168.09l-1.89-2.68.74-.82,1.15.94,1.15-.94.74.82Zm2.63,2.68,1.15.94,1.15-.94.74.82-1.89,2.68-1.89-2.68Zm1.15,7.62-1.89-2.68.74-.82,1.15.94,1.15-.94.74.82Zm3.78-2.06-1.89-2.68.74-.82,1.15.94,1.15-.94.74.82Zm3.78,2.06-1.89-2.68.74-.82,1.15.94,1.15-.94.74.82Zm3.78-2.06-1.89-2.68.74-.82,1.15.94,1.15-.94.74.82Zm3.78-2.06-1.89-2.68.74-.82,1.15.94,1.15-.94.74.82Z" fill="none"/><polygon points="97.33 139.75 95.95 139.85 96.58 140.37 97.33 139.75" fill="none"/><polygon points="72.16 159.22 71.41 158.4 70.27 159.34 69.57 158.77 69.57 159.71 70.2 161.82 70.27 161.9 72.16 159.22" fill="#fff"/><polygon points="72.16 155.1 71.41 154.28 70.27 155.22 69.57 154.65 69.57 156.8 70.27 157.78 72.16 155.1" fill="#fff"/><polygon points="71.77 167.04 71.97 167.72 72.16 167.46 71.77 167.04" fill="#fff"/><polygon points="71.41 162.52 70.61 163.18 71.11 164.83 72.16 163.34 71.41 162.52" fill="#fff"/><polygon points="75.94 157.16 75.19 156.34 74.05 157.28 72.9 156.34 72.16 157.16 74.05 159.84 75.94 157.16" fill="#fff"/><polygon points="74.05 153.16 72.9 152.22 72.16 153.04 74.05 155.72 75.94 153.04 75.19 152.22 74.05 153.16" fill="#fff"/><polygon points="75.19 164.58 74.05 165.52 72.9 164.58 72.16 165.4 74.05 168.09 75.94 165.4 75.19 164.58" fill="#fff"/><polygon points="75.94 161.28 75.19 160.46 74.05 161.4 72.9 160.46 72.16 161.28 74.05 163.97 75.94 161.28" fill="#fff"/><polygon points="77.82 161.9 79.71 159.22 78.97 158.4 77.82 159.34 76.68 158.4 75.94 159.22 77.82 161.9" fill="#fff"/><polygon points="79.71 155.1 78.97 154.28 77.82 155.22 76.68 154.28 75.94 155.1 77.82 157.78 79.71 155.1" fill="#fff"/><polygon points="77.82 170.15 79.71 167.46 78.97 166.64 77.82 167.58 76.68 166.64 75.94 167.46 77.82 170.15" fill="#fff"/><polygon points="77.82 166.03 79.71 163.34 78.97 162.52 77.82 163.46 76.68 162.52 75.94 163.34 77.82 166.03" fill="#fff"/><polygon points="75.19 172.82 74.05 173.76 73.78 173.55 74.47 175.72 75.94 173.65 75.19 172.82" fill="#fff"/><polygon points="75.94 169.53 75.19 168.7 74.05 169.64 72.9 168.7 72.43 169.22 72.57 169.71 72.81 170.45 74.05 172.21 75.94 169.53" fill="#fff"/><polygon points="75.19 176.95 74.93 177.16 75.37 178.57 75.94 177.77 75.19 176.95" fill="#fff"/><polygon points="77.82 175.82 76.68 174.88 75.94 175.71 77.82 178.39 79.71 175.71 78.97 174.88 77.82 175.82" fill="#fff"/><polygon points="79.71 171.59 78.97 170.76 77.82 171.7 76.68 170.76 75.94 171.59 77.82 174.27 79.71 171.59" fill="#fff"/><polygon points="76.5 179.21 76.92 179.21 76.68 179.01 76.5 179.21" fill="#fff"/><polygon points="78.73 179.21 79.15 179.21 78.97 179.01 78.73 179.21" fill="#fff"/><polygon points="81.6 159.84 83.49 157.16 82.75 156.34 81.6 157.28 80.45 156.34 79.71 157.16 81.6 159.84" fill="#fff"/><polygon points="81.6 153.16 80.45 152.22 79.71 153.04 81.6 155.72 83.49 153.04 82.75 152.22 81.6 153.16" fill="#fff"/><polygon points="80.45 164.58 79.71 165.4 81.6 168.09 83.49 165.4 82.75 164.58 81.6 165.52 80.45 164.58" fill="#fff"/><polygon points="82.75 160.46 81.6 161.4 80.45 160.46 79.71 161.28 81.6 163.97 83.49 161.28 82.75 160.46" fill="#fff"/><polygon points="86.53 158.4 85.38 159.34 84.23 158.4 83.49 159.22 85.38 161.9 87.27 159.22 86.53 158.4" fill="#fff"/><polygon points="85.38 155.22 84.23 154.28 83.49 155.1 85.38 157.78 87.27 155.1 86.53 154.28 85.38 155.22" fill="#fff"/><polygon points="86.53 166.64 85.38 167.58 84.23 166.64 83.49 167.46 85.38 170.15 87.27 167.46 86.53 166.64" fill="#fff"/><polygon points="87.27 163.34 86.53 162.52 85.38 163.46 84.23 162.52 83.49 163.34 85.38 166.03 87.27 163.34" fill="#fff"/><polygon points="82.75 172.82 81.6 173.76 80.45 172.82 79.71 173.65 81.6 176.33 83.49 173.65 82.75 172.82" fill="#fff"/><polygon points="83.49 169.53 82.75 168.7 81.6 169.64 80.45 168.7 79.71 169.53 81.6 172.21 83.49 169.53" fill="#fff"/><polygon points="82.75 176.95 81.6 177.88 80.45 176.95 79.71 177.77 80.73 179.21 82.48 179.21 83.49 177.77 82.75 176.95" fill="#fff"/><polygon points="85.38 175.82 84.23 174.88 83.49 175.71 85.38 178.39 87.27 175.71 86.53 174.88 85.38 175.82" fill="#fff"/><polygon points="87.27 171.59 86.53 170.76 85.38 171.7 84.23 170.76 83.49 171.59 85.38 174.27 87.27 171.59" fill="#fff"/><polygon points="86.29 179.21 86.71 179.21 86.53 179.01 86.29 179.21" fill="#fff"/><polygon points="84.06 179.21 84.48 179.21 84.23 179.01 84.06 179.21" fill="#fff"/><polygon points="89.16 159.84 91.05 157.16 90.31 156.34 89.16 157.28 88.01 156.34 87.27 157.16 89.16 159.84" fill="#fff"/><polygon points="89.16 153.16 88.01 152.22 87.27 153.04 89.16 155.72 91.05 153.04 90.31 152.22 89.16 153.16" fill="#fff"/><polygon points="90.31 164.58 89.16 165.52 88.01 164.58 87.27 165.4 89.16 168.09 91.05 165.4 90.31 164.58" fill="#fff"/><polygon points="91.05 161.28 90.31 160.46 89.16 161.4 88.01 160.46 87.27 161.28 89.16 163.97 91.05 161.28" fill="#fff"/><polygon points="91.79 158.4 91.05 159.22 92.94 161.9 94.83 159.22 94.09 158.4 92.94 159.34 91.79 158.4" fill="#fff"/><polygon points="94.09 154.28 92.94 155.22 91.79 154.28 91.05 155.1 92.94 157.78 94.83 155.1 94.09 154.28" fill="#fff"/><polygon points="94.83 167.46 94.09 166.64 92.94 167.58 91.79 166.64 91.05 167.46 92.94 170.15 94.83 167.46" fill="#fff"/><polygon points="94.83 163.34 94.09 162.52 92.94 163.46 91.79 162.52 91.05 163.34 92.94 166.03 94.83 163.34" fill="#fff"/><polygon points="89.16 173.76 88.01 172.82 87.27 173.65 89.16 176.33 91.05 173.65 90.31 172.82 89.16 173.76" fill="#fff"/><polygon points="91.05 169.53 90.31 168.7 89.16 169.64 88.01 168.7 87.27 169.53 89.16 172.21 91.05 169.53" fill="#fff"/><polygon points="90.31 176.95 89.16 177.88 88.01 176.95 87.27 177.77 88.29 179.21 90.04 179.21 91.05 177.77 90.31 176.95" fill="#fff"/><polygon points="94.09 174.88 92.94 175.82 91.79 174.88 91.05 175.71 92.57 177.86 94.61 176.02 94.83 175.71 94.09 174.88" fill="#fff"/><polygon points="94.09 170.76 92.94 171.7 91.79 170.76 91.05 171.59 92.94 174.27 94.83 171.59 94.09 170.76" fill="#fff"/><polygon points="72.02 150.55 71.28 149.73 70.13 150.67 69.57 150.22 69.57 152.45 70.13 153.24 72.02 150.55" fill="#fff"/><polygon points="72.02 146.43 71.48 145.84 69.57 148 69.57 148.32 70.13 149.12 72.02 146.43" fill="#fff"/><polygon points="75.8 148.49 75.06 147.67 73.91 148.61 72.76 147.67 72.02 148.49 73.91 151.18 75.8 148.49" fill="#fff"/><polygon points="75.8 144.37 75.06 143.55 73.91 144.49 73.2 143.91 72.36 144.86 73.91 147.06 75.8 144.37" fill="#fff"/><polygon points="79.58 142.31 78.83 141.49 77.69 142.43 76.54 141.49 75.8 142.31 77.69 144.99 79.58 142.31" fill="#fff"/><polygon points="79.58 150.55 78.83 149.73 77.69 150.67 76.54 149.73 75.8 150.55 77.69 153.24 79.58 150.55" fill="#fff"/><polygon points="79.58 146.43 78.83 145.61 77.69 146.55 76.54 145.61 75.8 146.43 77.69 149.12 79.58 146.43" fill="#fff"/><polygon points="83.01 140.74 80.06 140.94 81.47 142.93 83.01 140.74" fill="#fff"/><polygon points="81.47 148.61 80.32 147.67 79.58 148.49 81.47 151.18 83.36 148.49 82.61 147.67 81.47 148.61" fill="#fff"/><polygon points="81.47 147.06 83.36 144.37 82.61 143.55 81.47 144.49 80.32 143.55 79.58 144.37 81.47 147.06" fill="#fff"/><polygon points="87.14 142.31 86.39 141.49 85.25 142.43 84.1 141.49 83.36 142.31 85.25 144.99 87.14 142.31" fill="#fff"/><polygon points="85.46 140.57 85.05 140.6 85.25 140.87 85.46 140.57" fill="#fff"/><polygon points="85.25 153.24 87.14 150.55 86.39 149.73 85.25 150.67 84.1 149.73 83.36 150.55 85.25 153.24" fill="#fff"/><polygon points="85.25 146.55 84.1 145.61 83.36 146.43 85.25 149.12 87.14 146.43 86.39 145.61 85.25 146.55" fill="#fff"/><polygon points="90.91 140.25 90.87 140.2 89.08 140.32 89.03 140.37 88.98 140.33 87.27 140.45 89.03 142.93 90.91 140.25" fill="#fff"/><polygon points="89.03 148.61 87.88 147.67 87.14 148.49 89.03 151.18 90.91 148.49 90.17 147.67 89.03 148.61" fill="#fff"/><polygon points="89.03 147.06 90.91 144.37 90.17 143.55 89.03 144.49 87.88 143.55 87.14 144.37 89.03 147.06" fill="#fff"/><polygon points="94.69 142.31 93.95 141.49 92.8 142.43 91.66 141.49 90.91 142.31 92.8 144.99 94.69 142.31" fill="#fff"/><polygon points="93.4 140.03 92.26 140.1 92.8 140.87 93.4 140.03" fill="#fff"/><polygon points="92.8 153.24 94.69 150.55 93.95 149.73 92.8 150.67 91.66 149.73 90.91 150.55 92.8 153.24" fill="#fff"/><polygon points="92.8 146.55 91.66 145.61 90.91 146.43 92.8 149.12 94.69 146.43 93.95 145.61 92.8 146.55" fill="#fff"/><polygon points="97.87 156.34 96.72 157.28 95.57 156.34 94.83 157.16 96.72 159.84 98.61 157.16 97.87 156.34" fill="#fff"/><polygon points="97.87 152.22 96.72 153.16 95.57 152.22 94.83 153.04 96.72 155.72 98.61 153.04 97.87 152.22" fill="#fff"/><polygon points="98.61 165.4 97.87 164.58 96.72 165.52 95.57 164.58 94.83 165.4 96.72 168.09 98.61 165.4" fill="#fff"/><polygon points="97.87 160.46 96.72 161.4 95.57 160.46 94.83 161.28 96.72 163.97 98.61 161.28 97.87 160.46" fill="#fff"/><polygon points="100.5 159.34 99.35 158.4 98.61 159.22 100.5 161.9 102.39 159.22 101.65 158.4 100.5 159.34" fill="#fff"/><polygon points="102.39 155.1 101.65 154.28 100.5 155.22 99.35 154.28 98.61 155.1 100.5 157.78 102.39 155.1" fill="#fff"/><polygon points="100.5 167.58 99.35 166.64 98.61 167.46 100.5 170.15 102.39 167.46 101.65 166.64 100.5 167.58" fill="#fff"/><polygon points="100.5 163.46 99.35 162.52 98.61 163.34 100.5 166.03 102.39 163.34 101.65 162.52 100.5 163.46" fill="#fff"/><polygon points="96.72 173.76 95.57 172.82 94.83 173.65 95.77 174.98 98 172.97 97.87 172.82 96.72 173.76" fill="#fff"/><polygon points="96.72 169.64 95.57 168.7 94.83 169.53 96.72 172.21 98.61 169.53 97.87 168.7 96.72 169.64" fill="#fff"/><polygon points="98.61 171.59 98.97 172.09 99.93 171.23 99.35 170.76 98.61 171.59" fill="#fff"/><polygon points="104.28 157.28 103.13 156.34 102.39 157.16 104.28 159.84 106.17 157.16 105.43 156.34 104.28 157.28" fill="#fff"/><polygon points="104.28 153.16 103.13 152.22 102.39 153.04 104.28 155.72 106.17 153.04 105.43 152.22 104.28 153.16" fill="#fff"/><polygon points="102.39 165.4 102.98 166.24 103.6 164.97 103.13 164.58 102.39 165.4" fill="#fff"/><polygon points="104.28 161.4 103.13 160.46 102.39 161.28 104.16 163.8 105.65 160.71 105.43 160.46 104.28 161.4" fill="#fff"/><polygon points="106.29 159.39 106.61 158.74 106.17 159.22 106.29 159.39" fill="#fff"/><polygon points="106.17 155.1 107.47 156.95 108.07 155.71 107.95 155.13 106.91 154.28 106.17 155.1" fill="#fff"/><polygon points="96.58 142.93 98.47 140.25 97.98 139.71 97.33 139.75 96.58 140.37 95.95 139.85 95 139.92 94.69 140.25 96.58 142.93" fill="#fff"/><polygon points="96.58 148.61 95.44 147.67 94.69 148.49 96.58 151.18 98.47 148.49 97.73 147.67 96.58 148.61" fill="#fff"/><polygon points="96.58 147.06 98.47 144.37 97.73 143.55 96.58 144.49 95.44 143.55 94.69 144.37 96.58 147.06" fill="#fff"/><polygon points="102.25 142.31 101.51 141.49 100.36 142.43 99.21 141.49 98.47 142.31 100.36 144.99 102.25 142.31" fill="#fff"/><polygon points="100.96 140.02 99.57 139.6 99.47 139.61 100.36 140.87 100.96 140.02" fill="#fff"/><polygon points="100.36 153.24 102.25 150.55 101.51 149.73 100.36 150.67 99.21 149.73 98.47 150.55 100.36 153.24" fill="#fff"/><polygon points="102.25 146.43 101.51 145.61 100.36 146.55 99.21 145.61 98.47 146.43 100.36 149.12 102.25 146.43" fill="#fff"/><polygon points="105.13 141.53 105.07 141.25 102.39 140.45 104.14 142.93 105.13 141.53" fill="#fff"/><polygon points="104.14 151.18 106.03 148.49 105.29 147.67 104.14 148.61 102.99 147.67 102.25 148.49 104.14 151.18" fill="#fff"/><polygon points="104.14 144.49 102.99 143.55 102.25 144.37 104.14 147.06 105.79 144.72 105.63 143.92 105.29 143.55 104.14 144.49" fill="#fff"/><polygon points="106.03 150.55 107.41 152.51 106.84 149.79 106.77 149.73 106.03 150.55" fill="#fff"/><polygon points="106.19 146.66 106.13 146.33 106.03 146.43 106.19 146.66" fill="#fff"/></svg>