<svg viewBox="-50 -50 900 780" xmlns="http://www.w3.org/2000/svg" xmlns:xlink="http://www.w3.org/1999/xlink" style="background-color:hsla(220,60%,8%,1);">
	<polygon fill="white" stroke="none" points="0,120 400,660 60,430 120,340 20,320 0,120" />
	<polygon fill="white" stroke="none" points="0,120 400,660 60,430 120,340 20,320 0,120" transform="matrix(-1,0,0,1,800,0)" />
	<polygon fill="hsla(210,60%,6%,1)" stroke="none" points="80,0 720,0 800,120 400,660 0,120" />
	<polygon fill="hsla(220,60%,8%,1)" stroke="hsla(210,50%,4%,1)" points="300,145 270,260 310,370 490,370 530,260 500,145" />
	<polygon fill="hsla(220,60%,8%,1)" stroke="hsla(210,50%,4%,1)" points="490,370 550,458 400,660 250,458 310,370" />
	<polygon fill="white" stroke="none" points="0,120 80,0 320,140 280,340" />
	<polygon fill="white" stroke="none" points="0,120 80,0 320,140 280,340" transform="matrix(-1,0,0,1,800,0)" />
</svg>